<?xml version="1.0" encoding="UTF-8" standalone="no"?>
<!-- Created with Inkscape (http://www.inkscape.org/) -->
<svg
   xmlns:dc="http://purl.org/dc/elements/1.1/"
   xmlns:cc="http://web.resource.org/cc/"
   xmlns:rdf="http://www.w3.org/1999/02/22-rdf-syntax-ns#"
   xmlns:svg="http://www.w3.org/2000/svg"
   xmlns="http://www.w3.org/2000/svg"
   xmlns:sodipodi="http://sodipodi.sourceforge.net/DTD/sodipodi-0.dtd"
   xmlns:inkscape="http://www.inkscape.org/namespaces/inkscape"
   width="713.87506"
   height="268.71875"
   id="svg3212"
   sodipodi:version="0.32"
   inkscape:version="0.45.1"
   sodipodi:docbase="P:\Workcopies\TheSign"
   sodipodi:docname="Keydrawing.svg"
   inkscape:output_extension="org.inkscape.output.svg.inkscape"
   version="1.0">
  <defs
     id="defs3214" />
  <sodipodi:namedview
     id="base"
     pagecolor="#ffffff"
     bordercolor="#666666"
     borderopacity="1.0"
     inkscape:pageopacity="0.0"
     inkscape:pageshadow="2"
     inkscape:zoom="0.7"
     inkscape:cx="867.67137"
     inkscape:cy="522.85713"
     inkscape:document-units="px"
     inkscape:current-layer="layer1"
     showgrid="true"
     inkscape:object-points="false"
     inkscape:object-nodes="false"
     objecttolerance="50"
     inkscape:object-paths="false"
     inkscape:window-width="1280"
     inkscape:window-height="710"
     inkscape:window-x="0"
     inkscape:window-y="56" />
  <metadata
     id="metadata3217">
    <rdf:RDF>
      <cc:Work
         rdf:about="">
        <dc:format>image/svg+xml</dc:format>
        <dc:type
           rdf:resource="http://purl.org/dc/dcmitype/StillImage" />
      </cc:Work>
    </rdf:RDF>
  </metadata>
  <g
     inkscape:label="Ebene 1"
     inkscape:groupmode="layer"
     id="layer1"
     transform="translate(278.64733,-420.8577)">
    <path
       style="opacity:1;fill:#ff0000;fill-opacity:1;fill-rule:nonzero;stroke:#000000;stroke-width:3;stroke-miterlimit:4;stroke-dasharray:none;stroke-opacity:1"
       d="M 1038.5848,703.78628 C 965.24767,703.78628 905.70982,763.29288 905.70982,836.63003 C 905.70982,909.96718 965.24767,969.50506 1038.5848,969.50503 C 1094.4256,969.50503 1142.2573,935.0063 1161.8973,886.16128 L 1558.1786,882.75503 L 1616.5849,813.31753 L 1564.6161,782.16128 L 1523.8973,829.31753 L 1479.6161,774.31753 L 1442.4911,831.44253 L 1399.6161,756.44253 L 1346.0536,811.44253 L 1290.3348,765.03628 L 1248.2098,826.44253 L 1215.3348,788.59878 L 1163.1473,790.44253 C 1144.3687,739.86561 1095.6766,703.78628 1038.5848,703.78628 z M 981.42857,792.34878 C 1005.8743,792.34878 1025.7098,812.18432 1025.7098,836.63003 C 1025.7098,861.07575 1005.8743,880.91128 981.42857,880.91128 C 956.98286,880.91129 937.14732,861.07574 937.14732,836.63003 C 937.14732,812.18432 956.98286,792.34878 981.42857,792.34878 z "
       id="path3220" />
    <path
       style="fill:#0abe1c;fill-opacity:1;fill-rule:evenodd;stroke:#000000;stroke-width:1px;stroke-linecap:butt;stroke-linejoin:miter;stroke-opacity:1"
       d="M 1448.7155,417.875 C 1387.4049,417.875 1335.7862,459.50149 1320.4968,516 L 918.80926,521.125 L 881.24676,585 C 872.98112,599.05871 936.05926,584.03125 936.05926,584.03125 L 968.90301,621.90625 L 1011.0593,560.46875 L 1066.778,606.90625 L 1120.3405,551.90625 L 1163.1843,626.90625 L 1200.3405,569.75 L 1244.6218,624.75 L 1285.3405,577.625 L 1327.653,605.5 C 1348.5214,651.54675 1394.8932,683.59375 1448.7155,683.59375 C 1522.0527,683.59372 1581.5905,624.08715 1581.5905,550.75 C 1581.5905,477.41282 1522.0527,417.87497 1448.7155,417.875 z M 1505.8718,506.46875 C 1530.3175,506.46871 1550.153,526.30429 1550.153,550.75 C 1550.153,575.19568 1530.3175,595.03125 1505.8718,595.03125 C 1481.426,595.03122 1461.5905,575.19571 1461.5905,550.75 C 1461.5905,526.30425 1481.426,506.46875 1505.8718,506.46875 z "
       id="path3231" />
    <path
       id="rect2210"
       style="fill:#ed8121;fill-opacity:1;stroke:#000000;stroke-opacity:1"
       d="M 31.42857,303.79077 L 31.42857,548.07648 L 675.71428,548.07648 L 675.71428,306.64791 L 515.71875,306.63393 L 515.71875,359.50893 L 547.15625,402.35268 L 447.15625,402.35268 L 478.5625,358.07143 L 478.5625,306.63393 L 368.5625,306.63393 L 368.5625,358.07143 L 400,358.07143 L 400,403.79018 L 311.4375,403.79018 L 311.4375,358.07143 L 338.5625,358.07143 L 338.5625,306.63393 L 240,306.63393 L 240,346.29018 C 249.36949,351.55218 255.71875,361.56751 255.71875,373.07143 C 255.71874,390.02572 241.95429,403.79018 225,403.79018 C 208.04571,403.79017 194.28125,390.02572 194.28125,373.07143 C 194.28126,361.56751 200.63051,351.55218 210,346.29018 L 210,303.77679"
       sodipodi:nodetypes="ccccccccccccccccccccssscc" />
    <path
       id="path2226"
       d="M 827.14286,142.36161 L 827.14286,485.20536 L 927.14286,485.20536 L 927.14286,524.86161 C 917.77337,530.12361 911.42412,540.13894 911.42411,551.64286 C 911.42411,568.59715 925.18857,582.3616 942.14286,582.36161 C 959.09715,582.36161 972.8616,568.59715 972.86161,551.64286 C 972.86161,540.13894 966.51235,530.12361 957.14286,524.86161 L 957.14286,485.20536 L 1055.7054,485.20536 L 1055.7054,536.64286 L 1028.5804,536.64286 L 1028.5804,582.36161 L 1117.1429,582.36161 L 1117.1429,536.64286 L 1085.7054,536.64286 L 1085.7054,485.20536 L 1195.7054,485.20536 L 1195.7054,536.64286 L 1164.2991,580.92411 L 1264.2991,580.92411 L 1232.8616,538.08036 L 1232.8616,485.20536 L 1339.9866,485.20536 L 1339.9866,142.36161 L 827.14286,142.36161 z "
       style="opacity:1;fill:#916f6f;stroke:#000000;stroke-opacity:1" />
    <path
       id="path3201"
       d="M -144.27235,422.3577 C -217.60948,422.3577 -277.14733,481.8643 -277.14733,555.20145 C -277.14733,628.5386 -217.60948,688.07648 -144.27235,688.07645 C -88.431543,688.07645 -40.599846,653.57772 -20.959846,604.7327 L 375.32145,601.32645 L 433.72775,531.88895 L 381.75895,500.7327 L 341.04015,547.88895 L 296.75895,492.88895 L 259.63395,550.01395 L 216.75895,475.01395 L 163.19645,530.01395 L 107.47765,483.6077 L 65.352654,545.01395 L 32.477654,507.1702 L -19.709846,509.01395 C -38.488446,458.43703 -87.180543,422.3577 -144.27235,422.3577 z M -201.42858,510.9202 C -176.98285,510.9202 -157.14735,530.75574 -157.14735,555.20145 C -157.14735,579.64717 -176.98285,599.4827 -201.42858,599.4827 C -225.87429,599.48271 -245.70983,579.64716 -245.70983,555.20145 C -245.70983,530.75574 -225.87429,510.9202 -201.42858,510.9202 z "
       style="opacity:1;fill:#0abe1c;fill-opacity:1;fill-rule:nonzero;stroke:#000000;stroke-width:3;stroke-miterlimit:4;stroke-dasharray:none;stroke-opacity:1" />
    <path
       style="fill:#ed8121;fill-opacity:1;stroke:#000000;stroke-opacity:1"
       d="M 170,-217.65625 L -8.5625,-217.625 L -8.5625,-14.21875 L -7.53125,-14.25 L 25.34375,23.59375 L 67.46875,-37.8125 L 123.1875,8.59375 L 176.75,-46.40625 L 218.53125,26.65625 L 220.875,26.65625 L 256.75,-28.53125 L 301.03125,26.46875 L 341.75,-20.6875 L 393.71875,10.46875 L 380.09375,26.65625 L 635.71875,26.65625 L 635.71875,-214.78125 L 475.71875,-214.78125 L 475.71875,-161.90625 L 507.15625,-119.0625 L 407.15625,-119.0625 L 438.5625,-163.34375 L 438.5625,-214.78125 L 328.5625,-214.78125 L 328.5625,-163.34375 L 360,-163.34375 L 360,-117.625 L 271.4375,-117.625 L 271.4375,-163.34375 L 298.5625,-163.34375 L 298.5625,-214.78125 L 200,-214.78125 L 200,-175.125 C 209.36949,-169.86299 215.71875,-159.84767 215.71875,-148.34375 C 215.71874,-131.38945 201.95429,-117.625 185,-117.625 C 168.04571,-117.62501 154.28125,-131.38946 154.28125,-148.34375 C 154.28126,-159.84766 160.63051,-169.863 170,-175.125 L 170,-217.65625 z "
       id="path7079" />
  </g>
</svg>
