<?xml version="1.0" encoding="UTF-8" standalone="no"?>
<!-- Created with Inkscape (http://www.inkscape.org/) -->
<svg
   xmlns:dc="http://purl.org/dc/elements/1.1/"
   xmlns:cc="http://creativecommons.org/ns#"
   xmlns:rdf="http://www.w3.org/1999/02/22-rdf-syntax-ns#"
   xmlns:svg="http://www.w3.org/2000/svg"
   xmlns="http://www.w3.org/2000/svg"
   xmlns:sodipodi="http://sodipodi.sourceforge.net/DTD/sodipodi-0.dtd"
   xmlns:inkscape="http://www.inkscape.org/namespaces/inkscape"
   width="713.87506"
   height="268.71875"
   id="svg3212"
   sodipodi:version="0.32"
   inkscape:version="0.46"
   sodipodi:docbase="P:\Workcopies\TheSign"
   sodipodi:docname="Keydrawing.svg"
   inkscape:output_extension="org.inkscape.output.svg.inkscape"
   version="1.0">
  <defs
     id="defs3214">
    <marker
       inkscape:stockid="DiamondM"
       orient="auto"
       refY="0.0"
       refX="0.0"
       id="DiamondM"
       style="overflow:visible">
      <path
         id="path3354"
         d="M 0,-7.0710768 L -7.0710894,0 L 0,7.0710589 L 7.0710462,0 L 0,-7.0710768 z "
         style="fill-rule:evenodd;stroke:#000000;stroke-width:1.0pt;marker-start:none"
         transform="scale(0.4)" />
    </marker>
    <marker
       inkscape:stockid="Arrow2Lend"
       orient="auto"
       refY="0.0"
       refX="0.0"
       id="Arrow2Lend"
       style="overflow:visible;">
      <path
         id="path3292"
         style="font-size:12.0;fill-rule:evenodd;stroke-width:0.62500000;stroke-linejoin:round;"
         d="M 8.7185878,4.0337352 L -2.2072895,0.016013256 L 8.7185884,-4.0017078 C 6.9730900,-1.6296469 6.9831476,1.6157441 8.7185878,4.0337352 z "
         transform="scale(1.1) rotate(180) translate(1,0)" />
    </marker>
    <marker
       inkscape:stockid="Arrow1Lend"
       orient="auto"
       refY="0.0"
       refX="0.0"
       id="Arrow1Lend"
       style="overflow:visible;">
      <path
         id="path3274"
         d="M 0.0,0.0 L 5.0,-5.0 L -12.5,0.0 L 5.0,5.0 L 0.0,0.0 z "
         style="fill-rule:evenodd;stroke:#000000;stroke-width:1.0pt;marker-start:none;"
         transform="scale(0.8) rotate(180) translate(12.5,0)" />
    </marker>
    <inkscape:perspective
       sodipodi:type="inkscape:persp3d"
       inkscape:vp_x="0 : 134.35938 : 1"
       inkscape:vp_y="0 : 1000 : 0"
       inkscape:vp_z="713.87506 : 134.35938 : 1"
       inkscape:persp3d-origin="356.93753 : 89.572917 : 1"
       id="perspective2480" />
  </defs>
  <sodipodi:namedview
     id="base"
     pagecolor="#ffffff"
     bordercolor="#666666"
     borderopacity="1.0"
     inkscape:pageopacity="0.0"
     inkscape:pageshadow="2"
     inkscape:zoom="0.24748737"
     inkscape:cx="53.910245"
     inkscape:cy="-438.18883"
     inkscape:document-units="px"
     inkscape:current-layer="layer1"
     showgrid="true"
     inkscape:object-points="false"
     inkscape:object-nodes="false"
     objecttolerance="50"
     inkscape:object-paths="false"
     inkscape:window-width="1280"
     inkscape:window-height="710"
     inkscape:window-x="0"
     inkscape:window-y="56" />
  <metadata
     id="metadata3217">
    <rdf:RDF>
      <cc:Work
         rdf:about="">
        <dc:format>image/svg+xml</dc:format>
        <dc:type
           rdf:resource="http://purl.org/dc/dcmitype/StillImage" />
      </cc:Work>
    </rdf:RDF>
  </metadata>
  <g
     inkscape:label="Ebene 1"
     inkscape:groupmode="layer"
     id="layer1"
     transform="translate(278.64733,-420.8577)">
    <path
       style="fill:#0abe1c;fill-opacity:1;fill-rule:evenodd;stroke:#000000;stroke-width:1px;stroke-linecap:butt;stroke-linejoin:miter;stroke-opacity:1"
       d="M -850.39166,159.27595 C -911.70226,159.27595 -963.32096,200.90244 -978.61036,257.40095 L -1380.298,262.52595 L -1417.8605,326.40095 C -1426.1261,340.45966 -1363.048,325.4322 -1363.048,325.4322 L -1330.2042,363.3072 L -1288.0479,301.8697 L -1232.3292,348.3072 L -1178.7667,293.3072 L -1135.9229,368.3072 L -1098.7667,311.15095 L -1054.4854,366.15095 L -1013.7667,319.02595 L -971.45416,346.90095 C -950.58576,392.9477 -904.21396,424.9947 -850.39166,424.9947 C -777.05446,424.99467 -717.51666,365.4881 -717.51666,292.15095 C -717.51666,218.81377 -777.05446,159.27592 -850.39166,159.27595 z M -793.23536,247.8697 C -768.78966,247.86966 -748.95416,267.70524 -748.95416,292.15095 C -748.95416,316.59663 -768.78966,336.4322 -793.23536,336.4322 C -817.68116,336.43217 -837.51666,316.59666 -837.51666,292.15095 C -837.51666,267.7052 -817.68116,247.8697 -793.23536,247.8697 z"
       id="path3231"
       inkscape:export-filename="P:\Workcopies\TheSign\pds_publish_key.png"
       inkscape:export-xdpi="37.470001"
       inkscape:export-ydpi="37.470001" />
    <path
       id="rect2210"
       style="fill:#ed8121;fill-opacity:1;stroke:#000000;stroke-opacity:1"
       d="M -1851.4958,2328.1365 L -1851.4958,2572.4222 L -1207.2101,2572.4222 L -1207.2101,2330.9936 L -1367.2056,2330.9796 L -1367.2056,2383.8546 L -1335.7681,2426.6984 L -1435.7681,2426.6984 L -1404.3618,2382.4171 L -1404.3618,2330.9796 L -1514.3618,2330.9796 L -1514.3618,2382.4171 L -1482.9243,2382.4171 L -1482.9243,2428.1359 L -1571.4868,2428.1359 L -1571.4868,2382.4171 L -1544.3618,2382.4171 L -1544.3618,2330.9796 L -1642.9243,2330.9796 L -1642.9243,2370.6359 C -1633.5548,2375.8979 -1627.2056,2385.9132 -1627.2056,2397.4171 C -1627.2056,2414.3714 -1640.97,2428.1359 -1657.9243,2428.1359 C -1674.8786,2428.1359 -1688.6431,2414.3714 -1688.6431,2397.4171 C -1688.6431,2385.9132 -1682.2938,2375.8979 -1672.9243,2370.6359 L -1672.9243,2328.1225"
       sodipodi:nodetypes="ccccccccccccccccccccssscc"
       inkscape:export-filename="P:\Workcopies\TheSign\ds_createChecksum.png"
       inkscape:export-xdpi="37.470001"
       inkscape:export-ydpi="37.470001" />
    <path
       id="path3201"
       d="M -233.16577,1687.0687 C -306.5029,1687.0687 -366.04075,1746.5753 -366.04075,1819.9124 C -366.04075,1893.2496 -306.5029,1952.7874 -233.16577,1952.7874 C -177.32497,1952.7874 -129.49327,1918.2887 -109.85327,1869.4437 L 286.42806,1866.0374 L 344.83436,1796.5999 L 292.86556,1765.4437 L 252.14675,1812.5999 L 207.86553,1757.5999 L 170.74053,1814.7249 L 127.86553,1739.7249 L 74.303028,1794.7249 L 18.584228,1748.3187 L -23.540772,1809.7249 L -56.415772,1771.8812 L -108.60327,1773.7249 C -127.38187,1723.148 -176.07397,1687.0687 -233.16577,1687.0687 z M -290.322,1775.6312 C -265.87627,1775.6312 -246.04077,1795.4667 -246.04077,1819.9124 C -246.04077,1844.3581 -265.87627,1864.1937 -290.322,1864.1937 C -314.76771,1864.1937 -334.60325,1844.3581 -334.60325,1819.9124 C -334.60325,1795.4667 -314.76771,1775.6312 -290.322,1775.6312 z"
       style="opacity:1;fill:#0abe1c;fill-opacity:1;fill-rule:nonzero;stroke:#000000;stroke-width:3;stroke-miterlimit:4;stroke-dasharray:none;stroke-opacity:1"
       inkscape:export-filename="P:\Workcopies\TheSign\ds_checksignature.png"
       inkscape:export-xdpi="37.470001"
       inkscape:export-ydpi="37.470001" />
    <path
       id="path2482"
       d="M -1446.3905,-371.01603 C -1519.7276,-371.01603 -1579.2654,-311.50943 -1579.2654,-238.17228 C -1579.2654,-164.83513 -1519.7276,-105.29725 -1446.3905,-105.29728 C -1390.5497,-105.29728 -1342.718,-139.79601 -1323.078,-188.64103 L -926.79666,-192.04728 L -868.39036,-261.48478 L -920.35916,-292.64103 L -961.07796,-245.48478 L -1005.3592,-300.48478 L -1042.4842,-243.35978 L -1085.3592,-318.35978 L -1138.9217,-263.35978 L -1194.6405,-309.76603 L -1236.7655,-248.35978 L -1269.6405,-286.20353 L -1321.828,-284.35978 C -1340.6066,-334.9367 -1389.2987,-371.01603 -1446.3905,-371.01603 z M -1503.5467,-282.45353 C -1479.101,-282.45353 -1459.2655,-262.61799 -1459.2655,-238.17228 C -1459.2655,-213.72656 -1479.101,-193.89103 -1503.5467,-193.89103 C -1527.9924,-193.89102 -1547.8279,-213.72657 -1547.8279,-238.17228 C -1547.8279,-262.61799 -1527.9924,-282.45353 -1503.5467,-282.45353 z"
       style="opacity:1;fill:#ff0000;fill-opacity:1;fill-rule:nonzero;stroke:#000000;stroke-width:3;stroke-miterlimit:4;stroke-dasharray:none;stroke-opacity:1"
       inkscape:export-filename="P:\Workcopies\TheSign\ds_generate_key.png"
       inkscape:export-xdpi="37.470001"
       inkscape:export-ydpi="37.470001" />
    <path
       id="path2484"
       d="M -753.41705,-458.93741 C -814.72765,-458.93741 -866.34635,-417.31092 -881.63575,-360.81241 L -1283.3233,-355.68741 L -1320.8858,-291.81241 C -1329.1514,-277.7537 -1266.0733,-292.78116 -1266.0733,-292.78116 L -1233.2295,-254.90616 L -1191.0732,-316.34366 L -1135.3545,-269.90616 L -1081.792,-324.90616 L -1038.9482,-249.90616 L -1001.792,-307.06241 L -957.51075,-252.06241 L -916.79205,-299.18741 L -874.47955,-271.31241 C -853.61115,-225.26566 -807.23935,-193.21866 -753.41705,-193.21866 C -680.07985,-193.21869 -620.54205,-252.72526 -620.54205,-326.06241 C -620.54205,-399.39959 -680.07985,-458.93744 -753.41705,-458.93741 z M -696.26075,-370.34366 C -671.81505,-370.3437 -651.97955,-350.50812 -651.97955,-326.06241 C -651.97955,-301.61673 -671.81505,-281.78116 -696.26075,-281.78116 C -720.70655,-281.78119 -740.54205,-301.6167 -740.54205,-326.06241 C -740.54205,-350.50816 -720.70655,-370.34366 -696.26075,-370.34366 z"
       style="fill:#0abe1c;fill-opacity:1;fill-rule:evenodd;stroke:#000000;stroke-width:1px;stroke-linecap:butt;stroke-linejoin:miter;stroke-opacity:1"
       inkscape:export-filename="P:\Workcopies\TheSign\ds_generate_key.png"
       inkscape:export-xdpi="37.470001"
       inkscape:export-ydpi="37.470001" />
    <path
       id="path2486"
       d="M -1489.6832,534.69668 C -1507.3395,534.69668 -1522.2047,546.68434 -1526.6078,562.95487 L -1642.2864,564.43077 L -1653.1037,582.82559 C -1655.4841,586.87424 -1637.3187,582.54661 -1637.3187,582.54661 L -1627.8603,593.45391 L -1615.7201,575.76105 L -1599.6741,589.13419 L -1584.2491,573.2952 L -1571.9109,594.89382 L -1561.2106,578.43387 L -1548.4584,594.27286 L -1536.7322,580.70173 L -1524.5469,588.72921 C -1518.5372,601.98983 -1505.183,611.21877 -1489.6832,611.21877 C -1468.5634,611.21876 -1451.4176,594.08197 -1451.4176,572.96223 C -1451.4176,551.84247 -1468.5634,534.69667 -1489.6832,534.69668 z M -1473.2232,560.21004 C -1466.1833,560.21003 -1460.471,565.92231 -1460.471,572.96223 C -1460.471,580.00213 -1466.1833,585.71441 -1473.2232,585.71441 C -1480.2631,585.7144 -1485.9754,580.00214 -1485.9754,572.96223 C -1485.9754,565.9223 -1480.2631,560.21004 -1473.2232,560.21004 z"
       style="fill:#0abe1c;fill-opacity:1;fill-rule:evenodd;stroke:#000000;stroke-width:0.28798151px;stroke-linecap:butt;stroke-linejoin:miter;stroke-opacity:1"
       inkscape:export-filename="P:\Workcopies\TheSign\pds_publish_key.png"
       inkscape:export-xdpi="37.470001"
       inkscape:export-ydpi="37.470001" />
    <path
       id="path2490"
       d="M -560.34279,567.02157 C -577.99909,567.02157 -592.86429,579.00923 -597.26739,595.27976 L -712.94595,596.75566 L -723.76325,615.15048 C -726.14365,619.19913 -707.97825,614.8715 -707.97825,614.8715 L -698.51985,625.7788 L -686.37965,608.08594 L -670.33365,621.45908 L -654.90865,605.62009 L -642.57045,627.21871 L -631.87015,610.75876 L -619.11799,626.59775 L -607.39179,613.02662 L -595.20649,621.0541 C -589.19679,634.31472 -575.84259,643.54366 -560.34279,643.54366 C -539.22299,643.54365 -522.07719,626.40686 -522.07719,605.28712 C -522.07719,584.16736 -539.22299,567.02156 -560.34279,567.02157 z M -543.88279,592.53493 C -536.84289,592.53492 -531.13059,598.2472 -531.13059,605.28712 C -531.13059,612.32702 -536.84289,618.0393 -543.88279,618.0393 C -550.92269,618.03929 -556.63499,612.32703 -556.63499,605.28712 C -556.63499,598.24719 -550.92269,592.53493 -543.88279,592.53493 z"
       style="fill:#0abe1c;fill-opacity:1;fill-rule:evenodd;stroke:#000000;stroke-width:0.28798151px;stroke-linecap:butt;stroke-linejoin:miter;stroke-opacity:1"
       inkscape:export-filename="P:\Workcopies\TheSign\pds_publish_key.png"
       inkscape:export-xdpi="37.470001"
       inkscape:export-ydpi="37.470001" />
    <path
       style="fill:#0abe1c;fill-opacity:1;fill-rule:evenodd;stroke:#000000;stroke-width:0.28798151px;stroke-linecap:butt;stroke-linejoin:miter;stroke-opacity:1"
       d="M -1198.7592,696.3211 C -1216.4155,696.3211 -1231.2807,708.30876 -1235.6838,724.57928 L -1351.3624,726.05518 L -1362.1797,744.44998 C -1364.5601,748.49868 -1346.3947,744.17098 -1346.3947,744.17098 L -1336.9363,755.07828 L -1324.7961,737.38548 L -1308.7501,750.75858 L -1293.3251,734.91958 L -1280.9869,756.51828 L -1270.2866,740.05828 L -1257.5344,755.89728 L -1245.8082,742.32618 L -1233.6229,750.35358 C -1227.6132,763.61428 -1214.259,772.84318 -1198.7592,772.84318 C -1177.6394,772.84318 -1160.4936,755.70638 -1160.4936,734.58668 C -1160.4936,713.46688 -1177.6394,696.32109 -1198.7592,696.3211 z M -1182.2992,721.83448 C -1175.2593,721.83448 -1169.547,727.54668 -1169.547,734.58668 C -1169.547,741.62658 -1175.2593,747.33878 -1182.2992,747.33878 C -1189.3391,747.33878 -1195.0514,741.62658 -1195.0514,734.58668 C -1195.0514,727.54668 -1189.3391,721.83448 -1182.2992,721.83448 z"
       id="path2492"
       inkscape:export-filename="P:\Workcopies\TheSign\pds_publish_key.png"
       inkscape:export-xdpi="37.470001"
       inkscape:export-ydpi="37.470001" />
    <path
       id="path2494"
       d="M -790.65757,720.56475 C -808.31387,720.56475 -823.17907,732.55241 -827.58217,748.82294 L -943.26077,750.29884 L -954.07807,768.69366 C -956.45849,772.74231 -938.29307,768.41468 -938.29307,768.41468 L -928.83467,779.32198 L -916.69447,761.62912 L -900.64847,775.00226 L -885.22347,759.16327 L -872.88527,780.76189 L -862.18497,764.30194 L -849.43277,780.14093 L -837.70657,766.5698 L -825.52127,774.59728 C -819.51157,787.8579 -806.15737,797.08684 -790.65757,797.08684 C -769.53777,797.08683 -752.39197,779.95004 -752.39197,758.8303 C -752.39197,737.71054 -769.53777,720.56474 -790.65757,720.56475 z M -774.19757,746.07811 C -767.15767,746.0781 -761.44537,751.79038 -761.44537,758.8303 C -761.44537,765.8702 -767.15767,771.58248 -774.19757,771.58248 C -781.23747,771.58247 -786.94977,765.87021 -786.94977,758.8303 C -786.94977,751.79037 -781.23747,746.07811 -774.19757,746.07811 z"
       style="fill:#0abe1c;fill-opacity:1;fill-rule:evenodd;stroke:#000000;stroke-width:0.28798151px;stroke-linecap:butt;stroke-linejoin:miter;stroke-opacity:1"
       inkscape:export-filename="P:\Workcopies\TheSign\pds_publish_key.png"
       inkscape:export-xdpi="37.470001"
       inkscape:export-ydpi="37.470001" />
    <path
       style="fill:#0abe1c;fill-opacity:1;fill-rule:evenodd;stroke:#000000;stroke-width:0.28798151px;stroke-linecap:butt;stroke-linejoin:miter;stroke-opacity:1"
       d="M -713.23072,1300.3018 C -703.73956,1315.1901 -685.64035,1321.2809 -669.55367,1316.2475 L -606.12597,1412.998 L -584.80005,1412.2313 C -580.10648,1412.0621 -593.52048,1399.0708 -593.52048,1399.0708 L -589.40748,1385.232 L -610.85266,1384.5058 L -608.20159,1363.7866 L -629.84917,1359.294 L -618.26897,1337.2797 L -637.90052,1337.1049 L -631.39954,1317.8376 L -649.14655,1315.2449 L -648.92773,1300.6547 C -640.9765,1288.4588 -640.37297,1272.2372 -648.70491,1259.1673 C -660.05788,1241.3584 -683.72491,1236.1124 -701.5337,1247.4653 C -719.34259,1258.8183 -724.58369,1282.4929 -713.23072,1300.3018 z M -700.56512,1272.7075 C -704.34943,1266.7712 -702.60329,1258.8837 -696.66703,1255.0994 C -690.73077,1251.3151 -682.84333,1253.0613 -679.05902,1258.9975 C -675.27471,1264.9338 -677.02085,1272.8212 -682.95711,1276.6055 C -688.89337,1280.3899 -696.78082,1278.6437 -700.56512,1272.7075 z"
       id="path5108"
       inkscape:export-filename="P:\Workcopies\TheSign\ds_add_to_keyring.png"
       inkscape:export-xdpi="37.470001"
       inkscape:export-ydpi="37.470001" />
    <path
       id="path5110"
       d="M -726.84419,1252.2662 C -740.37209,1263.6126 -744.05809,1282.35 -736.97589,1297.6457 L -824.65839,1373.114 L -821.12549,1394.1593 C -820.34759,1398.7911 -809.21059,1383.8019 -809.21059,1383.8019 L -794.95439,1386.0806 L -797.02269,1364.723 L -776.13469,1364.6578 L -774.49479,1342.6098 L -751.16169,1351.2296 L -753.54079,1331.7419 L -733.59179,1335.6827 L -733.32849,1317.7492 L -718.83369,1316.0693 C -705.70752,1322.3673 -689.54508,1320.8567 -677.66938,1310.8962 C -661.48775,1297.324 -659.3634,1273.1758 -672.93533,1256.9943 C -686.50746,1240.8127 -710.66253,1238.6941 -726.84419,1252.2662 z M -697.83729,1261.2366 C -692.44341,1256.7125 -684.39595,1257.4183 -679.87194,1262.8122 C -675.34795,1268.2061 -676.05376,1276.2537 -681.44763,1280.7776 C -686.8415,1285.3017 -694.88904,1284.5958 -699.41296,1279.202 C -703.937,1273.8082 -703.23125,1265.7605 -697.83729,1261.2366 z"
       style="fill:#0abe1c;fill-opacity:1;fill-rule:evenodd;stroke:#000000;stroke-width:0.28798151px;stroke-linecap:butt;stroke-linejoin:miter;stroke-opacity:1"
       inkscape:export-filename="P:\Workcopies\TheSign\ds_add_to_keyring.png"
       inkscape:export-xdpi="37.470001"
       inkscape:export-ydpi="37.470001" />
    <path
       style="fill:#0abe1c;fill-opacity:1;fill-rule:evenodd;stroke:#000000;stroke-width:0.28798151px;stroke-linecap:butt;stroke-linejoin:miter;stroke-opacity:1"
       d="M -731.64119,1272.2032 C -738.33519,1288.5413 -732.87839,1306.8416 -719.49189,1317.0847 L -761.98359,1424.6866 L -749.06329,1441.6704 C -746.21929,1445.408 -743.33679,1426.9581 -743.33679,1426.9581 L -729.65779,1422.3411 L -741.42709,1404.3993 L -722.96879,1394.6214 L -731.77709,1374.343 L -707.11321,1371.1146 L -718.28749,1354.9727 L -698.79627,1349.1776 L -706.90842,1333.1816 L -694.8604,1324.9495 C -680.31133,1324.416 -666.70844,1315.5577 -660.83198,1301.2151 C -652.8248,1281.6721 -662.18171,1259.3092 -681.72467,1251.3021 C -701.26772,1243.2949 -723.63399,1252.6601 -731.64119,1272.2032 z M -701.79201,1266.645 C -699.12297,1260.1307 -691.67142,1257.0105 -685.1571,1259.6796 C -678.64278,1262.3486 -675.52265,1269.8002 -678.1917,1276.3145 C -680.86075,1282.8288 -688.31229,1285.9489 -694.82661,1283.2799 C -701.34094,1280.6108 -704.46106,1273.1593 -701.79201,1266.645 z"
       id="path5112"
       inkscape:export-filename="P:\Workcopies\TheSign\ds_add_to_keyring.png"
       inkscape:export-xdpi="37.470001"
       inkscape:export-ydpi="37.470001" />
    <path
       id="path5114"
       d="M -722.17969,1292.7339 C -718.19709,1309.9351 -703.16533,1321.7132 -686.3209,1322.3328 L -658.7898,1434.6972 L -638.42906,1441.0864 C -633.9478,1442.4923 -642.26134,1425.7711 -642.26134,1425.7711 L -633.76869,1414.0962 L -653.74398,1406.2598 L -644.33502,1387.6108 L -663.24508,1376.1561 L -644.98613,1359.2639 L -663.43558,1352.5522 L -650.88129,1336.556 L -666.74769,1328.1931 L -661.67565,1314.5111 C -650.11237,1305.6652 -644.13359,1290.5734 -647.62984,1275.4731 C -652.39375,1254.8976 -672.95641,1242.0592 -693.53182,1246.8231 C -714.10735,1251.5869 -726.94369,1272.1584 -722.17969,1292.7339 z M -701.03672,1270.9432 C -702.62468,1264.0847 -698.34814,1257.2311 -691.48964,1255.6431 C -684.63123,1254.0551 -677.77759,1258.3318 -676.18963,1265.1902 C -674.60168,1272.0487 -678.8783,1278.9022 -685.73672,1280.4902 C -692.59521,1282.0782 -699.44877,1277.8016 -701.03672,1270.9432 z"
       style="fill:#0abe1c;fill-opacity:1;fill-rule:evenodd;stroke:#000000;stroke-width:0.28798151px;stroke-linecap:butt;stroke-linejoin:miter;stroke-opacity:1"
       inkscape:export-filename="P:\Workcopies\TheSign\ds_add_to_keyring.png"
       inkscape:export-xdpi="37.470001"
       inkscape:export-ydpi="37.470001" />
    <path
       id="path5118"
       d="M -1329.2061,1309.7796 L -872.61703,1309.7796"
       style="fill:none;fill-rule:evenodd;stroke:#000000;stroke-width:5;stroke-linecap:butt;stroke-linejoin:miter;marker-end:url(#Arrow2Lend);stroke-miterlimit:4;stroke-dasharray:none;stroke-opacity:1"
       sodipodi:nodetypes="cc"
       inkscape:export-filename="P:\Workcopies\TheSign\ds_add_to_keyring.png"
       inkscape:export-xdpi="37.470001"
       inkscape:export-ydpi="37.470001" />
    <text
       xml:space="preserve"
       style="font-size:14px;font-style:normal;font-weight:normal;text-align:center;text-anchor:middle;fill:#000000;fill-opacity:1;stroke:none;stroke-width:1px;stroke-linecap:butt;stroke-linejoin:miter;stroke-opacity:1;font-family:Arial Black"
       x="-820.08911"
       y="1687.6072"
       id="text5120"
       inkscape:export-filename="P:\Workcopies\TheSign\ds_check_fingerprint.png"
       inkscape:export-xdpi="37.470001"
       inkscape:export-ydpi="37.470001"><tspan
         sodipodi:role="line"
         id="tspan5122"
         x="-817.75122"
         y="1757.6072">pub 1024D/6702661F 2003-05-04 Key fingerprint = A2E8 8737 3654 D5E2 031F 02B5 BCDE B096 6702 661F uid Steffen Köehler (SY CS1 E) uid Steffen Koehler sub 1024g/FA8259DC 2003-05-04 </tspan><tspan
         sodipodi:role="line"
         x="-820.08911"
         y="1775.1072"
         id="tspan5124" /></text>
    <path
       id="path5126"
       d="M -1374.6273,1609.6996 C -1416.884,1609.6996 -1452.4609,1638.3896 -1462.9987,1677.3297 L -1739.8515,1680.862 L -1765.7405,1724.8862 C -1771.4373,1734.5758 -1727.9624,1724.2185 -1727.9624,1724.2185 L -1705.3256,1750.3229 L -1676.2705,1707.9787 L -1637.8678,1739.9845 L -1600.9513,1702.0772 L -1571.4223,1753.769 L -1545.8134,1714.3755 L -1515.2936,1752.2828 L -1487.2293,1719.8031 L -1458.0665,1739.0153 C -1443.6835,1770.7518 -1411.7229,1792.8394 -1374.6273,1792.8394 C -1324.0815,1792.8393 -1283.0467,1751.826 -1283.0467,1701.2802 C -1283.0467,1650.7345 -1324.0815,1609.6996 -1374.6273,1609.6996 z M -1335.2338,1670.7606 C -1318.3852,1670.7605 -1304.7141,1684.4317 -1304.7141,1701.2802 C -1304.7141,1718.1288 -1318.3852,1731.8 -1335.2338,1731.8 C -1352.0824,1731.7999 -1365.7535,1718.1288 -1365.7535,1701.2802 C -1365.7535,1684.4317 -1352.0824,1670.7606 -1335.2338,1670.7606 z"
       style="fill:#0abe1c;fill-opacity:1;fill-rule:evenodd;stroke:#000000;stroke-width:0.68922395px;stroke-linecap:butt;stroke-linejoin:miter;stroke-opacity:1"
       inkscape:export-filename="P:\Workcopies\TheSign\ds_check_fingerprint.png"
       inkscape:export-xdpi="37.470001"
       inkscape:export-ydpi="37.470001" />
    <text
       xml:space="preserve"
       style="font-size:40px;font-style:normal;font-weight:normal;fill:#000000;fill-opacity:1;stroke:none;stroke-width:1px;stroke-linecap:butt;stroke-linejoin:miter;stroke-opacity:1;font-family:Arial Black"
       x="-1248.3938"
       y="1719.9321"
       id="text5130"
       inkscape:export-filename="P:\Workcopies\TheSign\ds_check_fingerprint.png"
       inkscape:export-xdpi="37.470001"
       inkscape:export-ydpi="37.470001"><tspan
         sodipodi:role="line"
         id="tspan5132"
         x="-1248.3938"
         y="1719.9321"
         style="font-size:64px;fill:#ff0000;fill-opacity:1">?=</tspan></text>
    <path
       id="path6188"
       d="M -1449.2771,1266.0471 C -1466.9334,1266.0471 -1481.7986,1278.0348 -1486.2017,1294.3053 L -1601.8803,1295.7812 L -1612.6976,1314.176 C -1615.078,1318.2247 -1596.9126,1313.897 -1596.9126,1313.897 L -1587.4542,1324.8043 L -1575.314,1307.1115 L -1559.268,1320.4846 L -1543.843,1304.6456 L -1531.5048,1326.2443 L -1520.8045,1309.7843 L -1508.0523,1325.6233 L -1496.3261,1312.0522 L -1484.1408,1320.0796 C -1478.1311,1333.3403 -1464.7769,1342.5692 -1449.2771,1342.5692 C -1428.1573,1342.5692 -1411.0115,1325.4324 -1411.0115,1304.3127 C -1411.0115,1283.1929 -1428.1573,1266.0471 -1449.2771,1266.0471 z M -1432.8171,1291.5605 C -1425.7772,1291.5605 -1420.0649,1297.2727 -1420.0649,1304.3127 C -1420.0649,1311.3526 -1425.7772,1317.0648 -1432.8171,1317.0648 C -1439.857,1317.0648 -1445.5693,1311.3526 -1445.5693,1304.3127 C -1445.5693,1297.2727 -1439.857,1291.5605 -1432.8171,1291.5605 z"
       style="fill:#0abe1c;fill-opacity:1;fill-rule:evenodd;stroke:#000000;stroke-width:0.28798151px;stroke-linecap:butt;stroke-linejoin:miter;stroke-opacity:1"
       inkscape:export-filename="P:\Workcopies\TheSign\ds_add_to_keyring.png"
       inkscape:export-xdpi="37.470001"
       inkscape:export-ydpi="37.470001" />
    <path
       style="opacity:1;fill:#916f6f;stroke:#000000;stroke-opacity:1"
       d="M -1770.9695,1988.9205 L -1770.9695,2331.7642 L -1670.9695,2331.7642 L -1670.9695,2371.4205 C -1680.339,2376.6825 -1686.6882,2386.6978 -1686.6882,2398.2017 C -1686.6882,2415.156 -1672.9238,2428.9205 -1655.9695,2428.9205 C -1639.0152,2428.9205 -1625.2507,2415.156 -1625.2507,2398.2017 C -1625.2507,2386.6978 -1631.6,2376.6825 -1640.9695,2371.4205 L -1640.9695,2331.7642 L -1542.4069,2331.7642 L -1542.4069,2383.2017 L -1569.5319,2383.2017 L -1569.5319,2428.9205 L -1480.9694,2428.9205 L -1480.9694,2383.2017 L -1512.4069,2383.2017 L -1512.4069,2331.7642 L -1402.4069,2331.7642 L -1402.4069,2383.2017 L -1433.8132,2427.483 L -1333.8132,2427.483 L -1365.2507,2384.6392 L -1365.2507,2331.7642 L -1258.1257,2331.7642 L -1258.1257,1988.9205 L -1770.9695,1988.9205 z"
       id="path6190"
       inkscape:export-filename="P:\Workcopies\TheSign\ds_createChecksum.png"
       inkscape:export-xdpi="37.470001"
       inkscape:export-ydpi="37.470001" />
    <text
       id="text6192"
       y="2156.3181"
       x="-1580.0164"
       style="font-size:40px;font-style:normal;font-weight:normal;fill:#000000;fill-opacity:1;stroke:none;stroke-width:1px;stroke-linecap:butt;stroke-linejoin:miter;stroke-opacity:1;font-family:Arial Black"
       xml:space="preserve"
       inkscape:export-filename="P:\Workcopies\TheSign\ds_createChecksum.png"
       inkscape:export-xdpi="37.470001"
       inkscape:export-ydpi="37.470001"><tspan
         style="font-size:64px;fill:#000000;fill-opacity:1"
         y="2156.3181"
         x="-1580.0164"
         id="tspan6194"
         sodipodi:role="line">File</tspan></text>
    <text
       xml:space="preserve"
       style="font-size:40px;font-style:normal;font-weight:normal;fill:#000000;fill-opacity:1;stroke:none;stroke-width:1px;stroke-linecap:butt;stroke-linejoin:miter;stroke-opacity:1;font-family:Arial Black"
       x="-1712.306"
       y="2493.4609"
       id="text6196"
       inkscape:export-filename="P:\Workcopies\TheSign\ds_createChecksum.png"
       inkscape:export-xdpi="37.470001"
       inkscape:export-ydpi="37.470001"><tspan
         sodipodi:role="line"
         id="tspan6198"
         x="-1712.306"
         y="2493.4609"
         style="font-size:64px;fill:#000000;fill-opacity:1">Checksum</tspan></text>
    <path
       sodipodi:nodetypes="ccccccccccccccccccccssscc"
       d="M -1855.7815,2623.8508 L -1855.7815,2868.1365 L -1211.4958,2868.1365 L -1211.4958,2626.7079 L -1371.4913,2626.6939 L -1371.4913,2679.5689 L -1340.0538,2722.4127 L -1440.0538,2722.4127 L -1408.6475,2678.1314 L -1408.6475,2626.6939 L -1518.6475,2626.6939 L -1518.6475,2678.1314 L -1487.21,2678.1314 L -1487.21,2723.8502 L -1575.7725,2723.8502 L -1575.7725,2678.1314 L -1548.6475,2678.1314 L -1548.6475,2626.6939 L -1647.21,2626.6939 L -1647.21,2666.3502 C -1637.8405,2671.6122 -1631.4913,2681.6275 -1631.4913,2693.1314 C -1631.4913,2710.0857 -1645.2557,2723.8502 -1662.21,2723.8502 C -1679.1643,2723.8502 -1692.9288,2710.0857 -1692.9288,2693.1314 C -1692.9288,2681.6275 -1686.5795,2671.6122 -1677.21,2666.3502 L -1677.21,2623.8368"
       style="fill:#ed8121;fill-opacity:1;stroke:#000000;stroke-opacity:1"
       id="path6200"
       inkscape:export-filename="P:\Workcopies\TheSign\ds_createSignature.png"
       inkscape:export-xdpi="37.470001"
       inkscape:export-ydpi="37.470001" />
    <text
       id="text6202"
       y="2789.1753"
       x="-1716.5918"
       style="font-size:40px;font-style:normal;font-weight:normal;fill:#000000;fill-opacity:1;stroke:none;stroke-width:1px;stroke-linecap:butt;stroke-linejoin:miter;stroke-opacity:1;font-family:Arial Black"
       xml:space="preserve"
       inkscape:export-filename="P:\Workcopies\TheSign\ds_createSignature.png"
       inkscape:export-xdpi="37.470001"
       inkscape:export-ydpi="37.470001"><tspan
         style="font-size:64px;fill:#000000;fill-opacity:1"
         y="2789.1753"
         x="-1716.5918"
         id="tspan6204"
         sodipodi:role="line">Checksum</tspan></text>
    <path
       style="opacity:1;fill:#ff0000;fill-opacity:1;fill-rule:nonzero;stroke:#000000;stroke-width:3;stroke-miterlimit:4;stroke-dasharray:none;stroke-opacity:1"
       d="M -1744.9619,3070.4125 C -1818.299,3070.4125 -1877.8368,3129.9191 -1877.8368,3203.2563 C -1877.8368,3276.5934 -1818.299,3336.1313 -1744.9619,3336.1313 C -1689.1211,3336.1313 -1641.2894,3301.6326 -1621.6494,3252.7875 L -1225.3681,3249.3813 L -1166.9618,3179.9438 L -1218.9306,3148.7875 L -1259.6494,3195.9438 L -1303.9306,3140.9438 L -1341.0556,3198.0688 L -1383.9306,3123.0688 L -1437.4931,3178.0688 L -1493.2119,3131.6625 L -1535.3369,3193.0688 L -1568.2119,3155.225 L -1620.3994,3157.0688 C -1639.178,3106.4919 -1687.8701,3070.4125 -1744.9619,3070.4125 z M -1802.1181,3158.975 C -1777.6724,3158.975 -1757.8369,3178.8106 -1757.8369,3203.2563 C -1757.8369,3227.702 -1777.6724,3247.5375 -1802.1181,3247.5375 C -1826.5638,3247.5376 -1846.3993,3227.702 -1846.3993,3203.2563 C -1846.3993,3178.8106 -1826.5638,3158.975 -1802.1181,3158.975 z"
       id="path6206"
       inkscape:export-filename="P:\Workcopies\TheSign\ds_createSignature.png"
       inkscape:export-xdpi="37.470001"
       inkscape:export-ydpi="37.470001" />
    <text
       xml:space="preserve"
       style="font-size:40px;font-style:normal;font-weight:normal;fill:#000000;fill-opacity:1;stroke:none;stroke-width:1px;stroke-linecap:butt;stroke-linejoin:miter;stroke-opacity:1;font-family:Arial Black"
       x="-1580.9238"
       y="3036.4792"
       id="text6208"
       inkscape:export-filename="P:\Workcopies\TheSign\ds_createSignature.png"
       inkscape:export-xdpi="37.470001"
       inkscape:export-ydpi="37.470001"><tspan
         sodipodi:role="line"
         id="tspan6210"
         x="-1580.9238"
         y="3036.4792"
         style="font-size:144px;fill:#000000;fill-opacity:1">+</tspan></text>
    <path
       id="path6212"
       d="M -1624.7135,3622.715 L -1803.276,3622.7463 L -1803.276,3826.1525 L -1802.2447,3826.1213 L -1769.3697,3863.965 L -1727.2447,3802.5588 L -1671.526,3848.965 L -1617.9635,3793.965 L -1576.1822,3867.0275 L -1573.8385,3867.0275 L -1537.9635,3811.84 L -1493.6822,3866.84 L -1452.9635,3819.6838 L -1400.9947,3850.84 L -1414.6197,3867.0275 L -1158.9947,3867.0275 L -1158.9947,3625.59 L -1318.9947,3625.59 L -1318.9947,3678.465 L -1287.5572,3721.3088 L -1387.5572,3721.3088 L -1356.151,3677.0275 L -1356.151,3625.59 L -1466.151,3625.59 L -1466.151,3677.0275 L -1434.7135,3677.0275 L -1434.7135,3722.7463 L -1523.276,3722.7463 L -1523.276,3677.0275 L -1496.151,3677.0275 L -1496.151,3625.59 L -1594.7135,3625.59 L -1594.7135,3665.2463 C -1585.344,3670.5083 -1578.9947,3680.5236 -1578.9947,3692.0275 C -1578.9947,3708.9818 -1592.7592,3722.7463 -1609.7135,3722.7463 C -1626.6677,3722.7463 -1640.4322,3708.9818 -1640.4322,3692.0275 C -1640.4322,3680.5236 -1634.0829,3670.5083 -1624.7135,3665.2463 L -1624.7135,3622.715 z"
       style="fill:#21e3ed;fill-opacity:1;stroke:#000000;stroke-opacity:1"
       inkscape:export-filename="P:\Workcopies\TheSign\ds_createSignature.png"
       inkscape:export-xdpi="37.470001"
       inkscape:export-ydpi="37.470001" />
    <text
       xml:space="preserve"
       style="font-size:40px;font-style:normal;font-weight:normal;fill:#000000;fill-opacity:1;stroke:none;stroke-width:1px;stroke-linecap:butt;stroke-linejoin:miter;stroke-opacity:1;font-family:Arial Black"
       x="-1591.3329"
       y="3779.1248"
       id="text6214"
       inkscape:export-filename="P:\Workcopies\TheSign\ds_createSignature.png"
       inkscape:export-xdpi="37.470001"
       inkscape:export-ydpi="37.470001"><tspan
         sodipodi:role="line"
         id="tspan6216"
         x="-1591.3329"
         y="3779.1248"
         style="font-size:64px;fill:#000000;fill-opacity:1">Signature</tspan></text>
    <text
       id="text6218"
       y="3505.1899"
       x="-1580.9238"
       style="font-size:40px;font-style:normal;font-weight:normal;fill:#000000;fill-opacity:1;stroke:none;stroke-width:1px;stroke-linecap:butt;stroke-linejoin:miter;stroke-opacity:1;font-family:Arial Black"
       xml:space="preserve"
       inkscape:export-filename="P:\Workcopies\TheSign\ds_createSignature.png"
       inkscape:export-xdpi="37.470001"
       inkscape:export-ydpi="37.470001"><tspan
         style="font-size:144px;fill:#000000;fill-opacity:1"
         y="3505.1899"
         x="-1580.9238"
         id="tspan6220"
         sodipodi:role="line">=</tspan></text>
    <path
       id="path6222"
       d="M -1979.3173,3753.2756 C -2052.6544,3753.2756 -2112.1922,3812.7822 -2112.1922,3886.1194 C -2112.1922,3959.4565 -2052.6544,4018.9944 -1979.3173,4018.9944 C -1923.4765,4018.9944 -1875.6448,3984.4957 -1856.0048,3935.6506 L -1459.7235,3932.2444 L -1401.3172,3862.8069 L -1453.286,3831.6506 L -1494.0048,3878.8069 L -1538.286,3823.8069 L -1575.411,3880.9319 L -1618.286,3805.9319 L -1671.8485,3860.9319 L -1727.5673,3814.5256 L -1769.6923,3875.9319 L -1802.5673,3838.0881 L -1854.7548,3839.9319 C -1873.5334,3789.355 -1922.2255,3753.2756 -1979.3173,3753.2756 z M -2036.4735,3841.8381 C -2012.0278,3841.8381 -1992.1923,3861.6737 -1992.1923,3886.1194 C -1992.1923,3910.5651 -2012.0278,3930.4006 -2036.4735,3930.4006 C -2060.9192,3930.4007 -2080.7547,3910.5651 -2080.7547,3886.1194 C -2080.7547,3861.6737 -2060.9192,3841.8381 -2036.4735,3841.8381 z"
       style="opacity:1;fill:#ff0000;fill-opacity:1;fill-rule:nonzero;stroke:#000000;stroke-width:3;stroke-miterlimit:4;stroke-dasharray:none;stroke-opacity:1"
       inkscape:export-filename="P:\Workcopies\TheSign\ds_createSignature.png"
       inkscape:export-xdpi="37.470001"
       inkscape:export-ydpi="37.470001" />
    <path
       style="fill:#21e3ed;fill-opacity:1;stroke:#000000;stroke-opacity:1"
       d="M 334.98244,172.03391 L 156.41994,172.06521 L 156.41994,375.47141 L 157.45124,375.44021 L 190.32624,413.28391 L 232.45124,351.87771 L 288.16994,398.28391 L 341.73244,343.28391 L 383.51374,416.34641 L 385.85744,416.34641 L 421.73244,361.15891 L 466.01374,416.15891 L 506.73244,369.00271 L 558.70124,400.15891 L 545.07624,416.34641 L 800.70124,416.34641 L 800.70124,174.90891 L 640.70124,174.90891 L 640.70124,227.78391 L 672.13874,270.62771 L 572.13874,270.62771 L 603.54494,226.34641 L 603.54494,174.90891 L 493.54494,174.90891 L 493.54494,226.34641 L 524.98244,226.34641 L 524.98244,272.06521 L 436.41994,272.06521 L 436.41994,226.34641 L 463.54494,226.34641 L 463.54494,174.90891 L 364.98244,174.90891 L 364.98244,214.56521 C 374.35194,219.82721 380.70124,229.84251 380.70124,241.34641 C 380.70124,258.30071 366.93674,272.06521 349.98244,272.06521 C 333.02824,272.06521 319.26374,258.30071 319.26374,241.34641 C 319.26374,229.84251 325.61304,219.82721 334.98244,214.56521 L 334.98244,172.03391 z"
       id="path6224"
       inkscape:export-filename="P:\Workcopies\TheSign\ds_puplishSignature.png"
       inkscape:export-xdpi="37.470001"
       inkscape:export-ydpi="37.470001" />
    <text
       id="text6226"
       y="328.44366"
       x="368.36307"
       style="font-size:40px;font-style:normal;font-weight:normal;fill:#000000;fill-opacity:1;stroke:none;stroke-width:1px;stroke-linecap:butt;stroke-linejoin:miter;stroke-opacity:1;font-family:Arial Black"
       xml:space="preserve"
       inkscape:export-filename="P:\Workcopies\TheSign\ds_puplishSignature.png"
       inkscape:export-xdpi="37.470001"
       inkscape:export-ydpi="37.470001"><tspan
         style="font-size:64px;fill:#000000;fill-opacity:1"
         y="328.44366"
         x="368.36307"
         id="tspan6228"
         sodipodi:role="line">Signature</tspan></text>
    <path
       id="path6230"
       d="M -184.58789,547.54453 L -268.11025,547.55917 L -268.11025,642.70214 L -267.62786,642.68755 L -252.25062,660.38889 L -232.54671,631.66622 L -206.48437,653.37266 L -181.43059,627.64648 L -161.88744,661.82137 L -160.79118,661.82137 L -144.0107,636.00749 L -123.29818,661.73367 L -104.25206,639.67642 L -79.943728,654.24969 L -86.316803,661.82137 L 33.251436,661.82137 L 33.251436,548.88931 L -41.588342,548.88931 L -41.588342,573.62152 L -26.883495,593.66165 L -73.658356,593.66165 L -58.96815,572.94913 L -58.96815,548.88931 L -110.4205,548.88931 L -110.4205,572.94913 L -95.715651,572.94913 L -95.715651,594.33404 L -137.14064,594.33404 L -137.14064,572.94913 L -124.45296,572.94913 L -124.45296,548.88931 L -170.55543,548.88931 L -170.55543,567.43849 C -166.17286,569.89978 -163.20298,574.58443 -163.20298,579.96536 C -163.20298,587.89571 -169.64131,594.33404 -177.57166,594.33404 C -185.50196,594.33404 -191.94029,587.89571 -191.94029,579.96536 C -191.94029,574.58443 -188.97041,569.89978 -184.58789,567.43849 L -184.58789,547.54453 z"
       style="fill:#21e3ed;fill-opacity:1;stroke:#000000;stroke-width:0.46774861;stroke-opacity:1"
       inkscape:export-filename="P:\Workcopies\TheSign\ds_puplishSignature.png"
       inkscape:export-xdpi="37.470001"
       inkscape:export-ydpi="37.470001" />
    <text
       xml:space="preserve"
       style="font-size:18.70994377px;font-style:normal;font-weight:normal;fill:#000000;fill-opacity:1;stroke:none;stroke-width:1px;stroke-linecap:butt;stroke-linejoin:miter;stroke-opacity:1;font-family:Arial Black"
       x="-168.97415"
       y="620.70496"
       id="text6232"
       inkscape:export-filename="P:\Workcopies\TheSign\ds_puplishSignature.png"
       inkscape:export-xdpi="37.470001"
       inkscape:export-ydpi="37.470001"><tspan
         sodipodi:role="line"
         id="tspan6234"
         x="-168.97415"
         y="620.70496"
         style="font-size:29.93591118px;fill:#000000;fill-opacity:1">Signature</tspan></text>
    <path
       style="fill:#21e3ed;fill-opacity:1;stroke:#000000;stroke-width:0.46774861;stroke-opacity:1"
       d="M 150.78276,688.96589 L 67.260391,688.98053 L 67.260391,784.1235 L 67.742781,784.10891 L 83.12002,801.81025 L 102.82393,773.08758 L 128.88627,794.79402 L 153.94006,769.06784 L 173.4832,803.24273 L 174.57947,803.24273 L 191.35994,777.42885 L 212.07246,803.15503 L 231.11858,781.09778 L 255.42691,795.67105 L 249.05384,803.24273 L 368.62208,803.24273 L 368.62208,690.31067 L 293.7823,690.31067 L 293.7823,715.04288 L 308.48715,735.08301 L 261.71228,735.08301 L 276.40249,714.37049 L 276.40249,690.31067 L 224.95014,690.31067 L 224.95014,714.37049 L 239.65499,714.37049 L 239.65499,735.7554 L 198.23,735.7554 L 198.23,714.37049 L 210.91768,714.37049 L 210.91768,690.31067 L 164.81521,690.31067 L 164.81521,708.85985 C 169.19778,711.32114 172.16766,716.00579 172.16766,721.38672 C 172.16766,729.31707 165.72933,735.7554 157.79898,735.7554 C 149.86868,735.7554 143.43036,729.31707 143.43036,721.38672 C 143.43036,716.00579 146.40023,711.32114 150.78276,708.85985 L 150.78276,688.96589 z"
       id="path6236"
       inkscape:export-filename="P:\Workcopies\TheSign\ds_puplishSignature.png"
       inkscape:export-xdpi="37.470001"
       inkscape:export-ydpi="37.470001" />
    <text
       id="text6238"
       y="762.12628"
       x="166.3965"
       style="font-size:18.70994377px;font-style:normal;font-weight:normal;fill:#000000;fill-opacity:1;stroke:none;stroke-width:1px;stroke-linecap:butt;stroke-linejoin:miter;stroke-opacity:1;font-family:Arial Black"
       xml:space="preserve"
       inkscape:export-filename="P:\Workcopies\TheSign\ds_puplishSignature.png"
       inkscape:export-xdpi="37.470001"
       inkscape:export-ydpi="37.470001"><tspan
         style="font-size:29.93591118px;fill:#000000;fill-opacity:1"
         y="762.12628"
         x="166.3965"
         id="tspan6240"
         sodipodi:role="line">Signature</tspan></text>
    <path
       id="path6242"
       d="M 566.9656,713.20955 L 483.44323,713.22419 L 483.44323,808.36716 L 483.92562,808.35257 L 499.30286,826.05391 L 519.00677,797.33124 L 545.06911,819.03768 L 570.1229,793.3115 L 589.66605,827.48639 L 590.76231,827.48639 L 607.54279,801.67251 L 628.25531,827.39869 L 647.30143,805.34144 L 671.60976,819.91471 L 665.23669,827.48639 L 784.80492,827.48639 L 784.80492,714.55433 L 709.96515,714.55433 L 709.96515,739.28654 L 724.66999,759.32667 L 677.89513,759.32667 L 692.58534,738.61415 L 692.58534,714.55433 L 641.13299,714.55433 L 641.13299,738.61415 L 655.83784,738.61415 L 655.83784,759.99906 L 614.41285,759.99906 L 614.41285,738.61415 L 627.10053,738.61415 L 627.10053,714.55433 L 580.99806,714.55433 L 580.99806,733.10351 C 585.38063,735.5648 588.3505,740.24945 588.3505,745.63038 C 588.3505,753.56073 581.91218,759.99906 573.98183,759.99906 C 566.05152,759.99906 559.6132,753.56073 559.6132,745.63038 C 559.6132,740.24945 562.58308,735.5648 566.9656,733.10351 L 566.9656,713.20955 z"
       style="fill:#21e3ed;fill-opacity:1;stroke:#000000;stroke-width:0.46774861;stroke-opacity:1"
       inkscape:export-filename="P:\Workcopies\TheSign\ds_puplishSignature.png"
       inkscape:export-xdpi="37.470001"
       inkscape:export-ydpi="37.470001" />
    <text
       xml:space="preserve"
       style="font-size:18.70994377px;font-style:normal;font-weight:normal;fill:#000000;fill-opacity:1;stroke:none;stroke-width:1px;stroke-linecap:butt;stroke-linejoin:miter;stroke-opacity:1;font-family:Arial Black"
       x="582.57935"
       y="786.36993"
       id="text6244"
       inkscape:export-filename="P:\Workcopies\TheSign\ds_puplishSignature.png"
       inkscape:export-xdpi="37.470001"
       inkscape:export-ydpi="37.470001"><tspan
         sodipodi:role="line"
         id="tspan6246"
         x="582.57935"
         y="786.36993"
         style="font-size:29.93591118px;fill:#000000;fill-opacity:1">Signature</tspan></text>
    <path
       style="fill:#21e3ed;fill-opacity:1;stroke:#000000;stroke-width:0.46774861;stroke-opacity:1"
       d="M 971.02663,539.46331 L 887.50426,539.47795 L 887.50426,634.62092 L 887.98665,634.60633 L 903.36389,652.30767 L 923.0678,623.585 L 949.13014,645.29144 L 974.18393,619.56526 L 993.72707,653.74015 L 994.82334,653.74015 L 1011.6038,627.92627 L 1032.3163,653.65245 L 1051.3624,631.5952 L 1075.6708,646.16847 L 1069.2977,653.74015 L 1188.8659,653.74015 L 1188.8659,540.80809 L 1114.0262,540.80809 L 1114.0262,565.5403 L 1128.731,585.58043 L 1081.9562,585.58043 L 1096.6464,564.86791 L 1096.6464,540.80809 L 1045.194,540.80809 L 1045.194,564.86791 L 1059.8989,564.86791 L 1059.8989,586.25282 L 1018.4739,586.25282 L 1018.4739,564.86791 L 1031.1616,564.86791 L 1031.1616,540.80809 L 985.05908,540.80809 L 985.05908,559.35727 C 989.44165,561.81856 992.41153,566.50321 992.41153,571.88414 C 992.41153,579.81449 985.9732,586.25282 978.04285,586.25282 C 970.11255,586.25282 963.67423,579.81449 963.67423,571.88414 C 963.67423,566.50321 966.6441,561.81856 971.02663,559.35727 L 971.02663,539.46331 z"
       id="path6248"
       inkscape:export-filename="P:\Workcopies\TheSign\ds_puplishSignature.png"
       inkscape:export-xdpi="37.470001"
       inkscape:export-ydpi="37.470001" />
    <text
       id="text6250"
       y="612.62372"
       x="986.64032"
       style="font-size:18.70994377px;font-style:normal;font-weight:normal;fill:#000000;fill-opacity:1;stroke:none;stroke-width:1px;stroke-linecap:butt;stroke-linejoin:miter;stroke-opacity:1;font-family:Arial Black"
       xml:space="preserve"
       inkscape:export-filename="P:\Workcopies\TheSign\ds_puplishSignature.png"
       inkscape:export-xdpi="37.470001"
       inkscape:export-ydpi="37.470001"><tspan
         style="font-size:29.93591118px;fill:#000000;fill-opacity:1"
         y="612.62372"
         x="986.64032"
         id="tspan6252"
         sodipodi:role="line">Signature</tspan></text>
    <path
       sodipodi:nodetypes="cc"
       style="fill:none;fill-rule:evenodd;stroke:#000000;stroke-width:5;stroke-linecap:butt;stroke-linejoin:miter;marker-end:url(#Arrow2Lend);stroke-miterlimit:4;stroke-dasharray:none;stroke-opacity:1"
       d="M 763.82997,457.21085 L 864.84538,582.46976"
       id="path6254"
       inkscape:export-filename="P:\Workcopies\TheSign\ds_puplishSignature.png"
       inkscape:export-xdpi="37.470001"
       inkscape:export-ydpi="37.470001" />
    <path
       id="path6256"
       d="M 594.12434,473.37329 L 618.36816,671.36318"
       style="fill:none;fill-rule:evenodd;stroke:#000000;stroke-width:5;stroke-linecap:butt;stroke-linejoin:miter;marker-end:url(#Arrow2Lend);stroke-miterlimit:4;stroke-dasharray:none;stroke-opacity:1"
       sodipodi:nodetypes="cc"
       inkscape:export-filename="P:\Workcopies\TheSign\ds_puplishSignature.png"
       inkscape:export-xdpi="37.470001"
       inkscape:export-ydpi="37.470001" />
    <path
       sodipodi:nodetypes="cc"
       style="fill:none;fill-rule:evenodd;stroke:#000000;stroke-width:5;stroke-linecap:butt;stroke-linejoin:miter;marker-end:url(#Arrow2Lend);stroke-miterlimit:4;stroke-dasharray:none;stroke-opacity:1"
       d="M 363.80956,453.17024 L 274.91629,634.99769"
       id="path6258"
       inkscape:export-filename="P:\Workcopies\TheSign\ds_puplishSignature.png"
       inkscape:export-xdpi="37.470001"
       inkscape:export-ydpi="37.470001" />
    <path
       id="path6260"
       d="M 186.02271,441.04841 L 80.967001,542.06366"
       style="fill:none;fill-rule:evenodd;stroke:#000000;stroke-width:5;stroke-linecap:butt;stroke-linejoin:miter;marker-end:url(#Arrow2Lend);stroke-miterlimit:4;stroke-dasharray:none;stroke-opacity:1"
       sodipodi:nodetypes="cc"
       inkscape:export-filename="P:\Workcopies\TheSign\ds_puplishSignature.png"
       inkscape:export-xdpi="37.470001"
       inkscape:export-ydpi="37.470001" />
    <path
       id="path6262"
       d="M 27.102028,1213.1233 L 27.102028,1555.967 L 127.10203,1555.967 L 127.10203,1595.6233 C 117.73253,1600.8853 111.38333,1610.9006 111.38333,1622.4045 C 111.38333,1639.3588 125.14773,1653.1233 142.10203,1653.1233 C 159.05633,1653.1233 172.82083,1639.3588 172.82083,1622.4045 C 172.82083,1610.9006 166.47153,1600.8853 157.10203,1595.6233 L 157.10203,1555.967 L 255.66463,1555.967 L 255.66463,1607.4045 L 228.53963,1607.4045 L 228.53963,1653.1233 L 317.10213,1653.1233 L 317.10213,1607.4045 L 285.66463,1607.4045 L 285.66463,1555.967 L 395.66463,1555.967 L 395.66463,1607.4045 L 364.25833,1651.6858 L 464.25833,1651.6858 L 432.82083,1608.842 L 432.82083,1555.967 L 539.94583,1555.967 L 539.94583,1213.1233 L 27.102028,1213.1233 z"
       style="opacity:1;fill:#916f6f;stroke:#000000;stroke-opacity:1"
       inkscape:export-filename="P:\Workcopies\TheSign\ds_checksignature.png"
       inkscape:export-xdpi="37.470001"
       inkscape:export-ydpi="37.470001" />
    <text
       xml:space="preserve"
       style="font-size:40px;font-style:normal;font-weight:normal;fill:#000000;fill-opacity:1;stroke:none;stroke-width:1px;stroke-linecap:butt;stroke-linejoin:miter;stroke-opacity:1;font-family:Arial Black"
       x="218.05518"
       y="1380.521"
       id="text6264"
       inkscape:export-filename="P:\Workcopies\TheSign\ds_checksignature.png"
       inkscape:export-xdpi="37.470001"
       inkscape:export-ydpi="37.470001"><tspan
         sodipodi:role="line"
         id="tspan6266"
         x="218.05518"
         y="1380.521"
         style="font-size:64px;fill:#000000;fill-opacity:1">File</tspan></text>
    <path
       id="path6268"
       d="M 124.87071,1557.9632 L -53.691789,1557.9945 L -53.691789,1761.4007 L -52.660489,1761.3695 L -19.785489,1799.2132 L 22.339511,1737.807 L 78.058211,1784.2132 L 131.62071,1729.2132 L 173.40201,1802.2757 L 175.74571,1802.2757 L 211.62071,1747.0882 L 255.90201,1802.0882 L 296.62071,1754.932 L 348.58951,1786.0882 L 334.96451,1802.2757 L 590.58951,1802.2757 L 590.58951,1560.8382 L 430.58951,1560.8382 L 430.58951,1613.7132 L 462.02701,1656.557 L 362.02701,1656.557 L 393.43321,1612.2757 L 393.43321,1560.8382 L 283.43321,1560.8382 L 283.43321,1612.2757 L 314.87071,1612.2757 L 314.87071,1657.9945 L 226.30821,1657.9945 L 226.30821,1612.2757 L 253.43321,1612.2757 L 253.43321,1560.8382 L 154.87071,1560.8382 L 154.87071,1600.4945 C 164.24021,1605.7565 170.58951,1615.7718 170.58951,1627.2757 C 170.58951,1644.23 156.82501,1657.9945 139.87071,1657.9945 C 122.91651,1657.9945 109.15201,1644.23 109.15201,1627.2757 C 109.15201,1615.7718 115.50131,1605.7565 124.87071,1600.4945 L 124.87071,1557.9632 z"
       style="fill:#21e3ed;fill-opacity:1;stroke:#000000;stroke-opacity:1"
       inkscape:export-filename="P:\Workcopies\TheSign\ds_checksignature.png"
       inkscape:export-xdpi="37.470001"
       inkscape:export-ydpi="37.470001" />
    <text
       xml:space="preserve"
       style="font-size:40px;font-style:normal;font-weight:normal;fill:#000000;fill-opacity:1;stroke:none;stroke-width:1px;stroke-linecap:butt;stroke-linejoin:miter;stroke-opacity:1;font-family:Arial Black"
       x="158.25134"
       y="1714.3729"
       id="text6270"
       inkscape:export-filename="P:\Workcopies\TheSign\ds_checksignature.png"
       inkscape:export-xdpi="37.470001"
       inkscape:export-ydpi="37.470001"><tspan
         sodipodi:role="line"
         id="tspan6272"
         x="158.25134"
         y="1714.3729"
         style="font-size:64px;fill:#000000;fill-opacity:1">Signature</tspan></text>
    <path
       sodipodi:nodetypes="cc"
       style="fill:none;fill-rule:evenodd;stroke:#000000;stroke-width:5;stroke-linecap:butt;stroke-linejoin:miter;marker-end:url(#Arrow2Lend);stroke-miterlimit:4;stroke-dasharray:none;stroke-opacity:1"
       d="M -1349.4091,416.80475 L -1438.3024,525.90122"
       id="path6274"
       inkscape:export-filename="P:\Workcopies\TheSign\pds_publish_key.png"
       inkscape:export-xdpi="37.470001"
       inkscape:export-ydpi="37.470001" />
    <path
       id="path6276"
       d="M -1143.338,437.0078 L -1220.1094,655.20075"
       style="fill:none;fill-rule:evenodd;stroke:#000000;stroke-width:5;stroke-linecap:butt;stroke-linejoin:miter;marker-end:url(#Arrow2Lend);stroke-miterlimit:4;stroke-dasharray:none;stroke-opacity:1"
       sodipodi:nodetypes="cc"
       inkscape:export-filename="P:\Workcopies\TheSign\pds_publish_key.png"
       inkscape:export-xdpi="37.470001"
       inkscape:export-ydpi="37.470001" />
    <path
       sodipodi:nodetypes="cc"
       style="fill:none;fill-rule:evenodd;stroke:#000000;stroke-width:5;stroke-linecap:butt;stroke-linejoin:miter;marker-end:url(#Arrow2Lend);stroke-miterlimit:4;stroke-dasharray:none;stroke-opacity:1"
       d="M -977.67292,453.17024 L -880.69811,675.4038"
       id="path6278"
       inkscape:export-filename="P:\Workcopies\TheSign\pds_publish_key.png"
       inkscape:export-xdpi="37.470001"
       inkscape:export-ydpi="37.470001" />
    <path
       id="path6280"
       d="M -828.17034,453.17024 L -715.03309,562.26671"
       style="fill:none;fill-rule:evenodd;stroke:#000000;stroke-width:5;stroke-linecap:butt;stroke-linejoin:miter;marker-end:url(#Arrow2Lend);stroke-miterlimit:4;stroke-dasharray:none;stroke-opacity:1"
       sodipodi:nodetypes="cc"
       inkscape:export-filename="P:\Workcopies\TheSign\pds_publish_key.png"
       inkscape:export-xdpi="37.470001"
       inkscape:export-ydpi="37.470001" />
  </g>
</svg>
