<?xml version="1.0" encoding="UTF-8" standalone="no"?>
<!-- Created with Inkscape (http://www.inkscape.org/) -->
<svg
   xmlns:dc="http://purl.org/dc/elements/1.1/"
   xmlns:cc="http://web.resource.org/cc/"
   xmlns:rdf="http://www.w3.org/1999/02/22-rdf-syntax-ns#"
   xmlns:svg="http://www.w3.org/2000/svg"
   xmlns="http://www.w3.org/2000/svg"
   xmlns:xlink="http://www.w3.org/1999/xlink"
   xmlns:sodipodi="http://sodipodi.sourceforge.net/DTD/sodipodi-0.dtd"
   xmlns:inkscape="http://www.inkscape.org/namespaces/inkscape"
   width="160"
   height="160"
   id="svg3651"
   sodipodi:version="0.32"
   inkscape:version="0.45.1"
   version="1.0"
   inkscape:export-filename="P:\Workcopies\TheSign\sign.png"
   inkscape:export-xdpi="9"
   inkscape:export-ydpi="9"
   sodipodi:docbase="P:\Workcopies\TheSign"
   sodipodi:docname="sign_it.svg"
   inkscape:output_extension="org.inkscape.output.svg.inkscape">
  <defs
     id="defs3653">
    <linearGradient
       inkscape:collect="always"
       id="linearGradient3709">
      <stop
         style="stop-color:#0000d3;stop-opacity:1;"
         offset="0"
         id="stop3711" />
      <stop
         style="stop-color:#0000d3;stop-opacity:0;"
         offset="1"
         id="stop3713" />
    </linearGradient>
    <linearGradient
       id="linearGradient3679">
      <stop
         style="stop-color:#ffffff;stop-opacity:0;"
         offset="0"
         id="stop3681" />
      <stop
         id="stop3707"
         offset="0.36697248"
         style="stop-color:#0000d3;stop-opacity:0.12156863;" />
      <stop
         id="stop3703"
         offset="1"
         style="stop-color:#000000;stop-opacity:0.24705882;" />
    </linearGradient>
    <linearGradient
       id="linearGradient3661">
      <stop
         style="stop-color:#ffffff;stop-opacity:1;"
         offset="0"
         id="stop3663" />
      <stop
         id="stop3671"
         offset="0.5"
         style="stop-color:#ffff00;stop-opacity:0.49803922;" />
      <stop
         style="stop-color:#000000;stop-opacity:0.24705882;"
         offset="1"
         id="stop3673" />
    </linearGradient>
    <linearGradient
       inkscape:collect="always"
       xlink:href="#linearGradient3661"
       id="linearGradient3667"
       x1="42.789127"
       y1="62.811665"
       x2="78.165787"
       y2="116.71088"
       gradientUnits="userSpaceOnUse" />
    <linearGradient
       inkscape:collect="always"
       xlink:href="#linearGradient3679"
       id="linearGradient3685"
       x1="148.1167"
       y1="61.962864"
       x2="113.31565"
       y2="18.67374"
       gradientUnits="userSpaceOnUse" />
    <linearGradient
       inkscape:collect="always"
       xlink:href="#linearGradient3709"
       id="linearGradient3715"
       x1="147.69231"
       y1="45.41114"
       x2="130.71619"
       y2="21.644562"
       gradientUnits="userSpaceOnUse" />
  </defs>
  <sodipodi:namedview
     id="base"
     pagecolor="#ffffff"
     bordercolor="#666666"
     borderopacity="1.0"
     inkscape:pageopacity="0.0"
     inkscape:pageshadow="2"
     inkscape:zoom="2.35625"
     inkscape:cx="80"
     inkscape:cy="60.577706"
     inkscape:document-units="px"
     inkscape:current-layer="layer1"
     width="160px"
     height="160px"
     inkscape:window-width="797"
     inkscape:window-height="573"
     inkscape:window-x="66"
     inkscape:window-y="87" />
  <metadata
     id="metadata3656">
    <rdf:RDF>
      <cc:Work
         rdf:about="">
        <dc:format>image/svg+xml</dc:format>
        <dc:type
           rdf:resource="http://purl.org/dc/dcmitype/StillImage" />
      </cc:Work>
    </rdf:RDF>
  </metadata>
  <g
     inkscape:label="Ebene 1"
     inkscape:groupmode="layer"
     id="layer1">
    <path
       style="opacity:0.81818183;fill:#000001;fill-opacity:1;fill-rule:nonzero;stroke:none;stroke-width:3;stroke-miterlimit:4;stroke-dasharray:none;stroke-opacity:1"
       id="path3719"
       d="M -78.046762,144.88271 C -77.047029,143.4941 -76.173287,142.01518 -75.245143,140.57676 C -74.136235,138.89022 -72.884415,137.30644 -71.637075,135.72214 C -70.768333,134.7043 -69.913191,133.68352 -69.097225,132.62427 C -68.508685,131.67694 -67.665794,130.94943 -66.882799,130.18936 C -61.012376,124.61216 -54.74997,122.95446 -48.404011,119.7099 C -89.553151,143.37429 -47.861554,119.35936 -47.580868,119.20003 C -42.39267,116.25509 -68.490137,130.66528 -63.084871,128.14076 C -59.821334,126.61654 -51.411219,121.48292 -45.789826,118.27686 C -44.940549,117.62675 -44.00178,117.66821 -42.996301,117.59845 C -42.074776,117.4216 -41.224732,117.16651 -40.349847,116.88279 C -34.461687,113.91165 -27.652329,109.69194 -54.44225,125.07087 C -48.949184,121.29675 -41.852195,117.88541 -36.609804,114.97512 C -35.780251,114.99305 -34.950624,115.00741 -34.121034,115.02338 C -32.989349,115.02006 -32.51025,115.73017 -31.79022,116.44104 C -31.403958,116.94177 -31.100978,117.51294 -30.779792,118.05449 C -30.50541,118.61008 -30.111837,119.08349 -29.778635,119.59808 C -29.483648,120.21868 -29.162948,120.83088 -28.866206,121.45102 C -28.396526,122.19451 -28.142723,123.0367 -27.835604,123.85304 C -27.626238,124.61859 -27.368005,125.36898 -27.133067,126.1262 C -26.688209,126.8192 -26.379995,127.57591 -26.040296,128.31908 C -25.739999,129.0016 -25.417264,129.67368 -25.102128,130.34935 C -24.724246,131.44009 -24.155961,132.43337 -23.605454,133.44103 C -22.856077,134.70827 -22.122913,135.98152 -21.338908,137.22781 C -20.752761,138.39758 -19.867091,139.35838 -19.045525,140.36242 C -18.468781,141.00085 -17.636192,141.08619 -16.895926,141.36843 C -16.039246,141.40653 -15.180612,141.40064 -14.323013,141.41207 C -13.061617,141.40753 -11.800626,141.43462 -10.539147,141.43429 C -9.1037424,141.26677 -7.7829217,140.67856 -6.5001637,140.05339 C -5.5876319,141.01834 -26.819144,153.33525 -19.423291,147.16973 C -18.610074,146.44187 -18.198464,145.46447 -17.724312,144.51268 C -17.209751,143.47453 -16.635905,142.46532 -16.089295,141.44394 C -15.658337,140.50877 -15.025421,139.74385 -14.359423,138.97721 C -13.90618,138.18404 -13.250469,137.58257 -12.588026,136.96864 C -6.6333473,132.79287 -0.36675771,128.94831 6.3551889,126.25476 C 7.5647309,125.73102 8.7788859,125.21404 9.9744119,124.65711 C 10.947313,124.33475 11.963371,124.36657 12.971917,124.34611 C 13.99969,124.29265 14.977718,124.6433 15.95821,124.87685 C 16.901632,124.99338 17.639274,125.50619 18.44972,125.93127 C 19.164811,126.53706 19.742053,127.27749 20.345159,127.9896 C 21.064316,128.97643 21.869984,129.8916 22.652041,130.83124 C 23.688257,131.92302 24.701926,133.03561 25.710617,134.15451 C 26.614922,135.16884 27.298346,136.35677 28.049739,137.48372 C 28.828706,138.85697 29.685843,140.18086 30.600504,141.46357 C 31.689838,142.87727 32.872166,144.19838 34.128447,145.46541 C 35.45288,146.75213 36.821766,147.97632 38.279037,149.10731 C 39.545579,150.23545 41.032534,150.70947 42.642109,151.07106 C 44.293862,151.34972 45.914367,151.26065 47.551385,151.00462 C 49.272295,150.67347 50.776076,149.79683 52.320883,149.02007 C 53.669306,148.24916 55.052234,147.55593 56.397139,146.80247 C 58.179409,146.1418 59.841107,145.17711 61.510438,144.27368 C 34.673719,159.20784 44.44016,154.93928 49.618878,150.71305 C 55.459945,145.77108 62.250543,142.84388 69.063572,138.92727 C 70.842834,137.97359 72.665623,137.10929 74.458747,136.18816 C 76.451316,135.33067 78.4568,134.50562 80.452425,133.65574 C 82.209909,132.93388 83.963935,132.19957 85.729299,131.49819 C 86.935313,130.88854 88.215683,130.44911 89.444146,129.89458 C 90.751924,129.50906 92.093776,129.29172 93.426276,128.99231 C 94.809166,128.85832 96.171336,128.65546 97.533056,128.39025 C 98.592306,128.17126 99.644006,127.96035 100.71959,127.80455 C 101.63533,127.65166 102.46347,127.85633 103.3388,128.08684 C 104.27941,128.55465 104.61731,129.43115 105.0646,130.31185 C 105.48925,131.21612 106.0162,132.06229 106.51197,132.92493 C 107.15992,133.97592 108.02447,134.79341 108.88114,135.64883 C 109.89561,136.57482 111.12088,137.1106 112.36547,137.63265 C 113.60129,138.04109 114.89606,137.99879 116.17688,138.03266 C 122.43612,136.15368 131.61769,129.69287 104.27878,145.34115 C 106.10012,144.48763 107.52225,143.13924 108.93417,141.75197 C 110.4121,140.0806 111.4612,138.11868 112.51427,136.1697 C 113.51757,134.24326 114.20775,132.1845 114.88664,130.12929 C 115.454,128.43951 115.85182,126.70894 116.39922,125.01341 C 116.8509,123.47501 117.49482,122.00487 118.11316,120.52976 C 118.74717,119.04352 119.44322,117.58897 120.19395,116.16043 C 120.91393,114.82956 121.74592,113.58265 122.64997,112.37445 C 123.62965,111.20695 124.7261,110.15071 125.84028,109.1144 C 126.80094,108.4338 127.63276,107.61507 128.47237,106.79816 C 129.25122,106.14675 130.04045,105.49921 130.82974,104.86735 C 136.03332,99.764049 137.21804,100.61976 148.44064,94.15777 C 149.59723,94.169172 150.12991,94.996143 150.84669,95.75184 C 151.38493,96.739656 151.78223,97.792431 152.20541,98.831527 C 152.39977,99.65019 152.93979,100.24155 153.41353,100.88945 C 154.02222,101.70467 154.71175,102.45096 155.3775,103.21675 C 155.89031,103.85644 156.52652,104.38298 157.12006,104.94605 C 158.16425,105.74264 159.38764,106.20817 160.58056,106.72761 C 162.58978,107.80627 164.71501,108.6326 166.83325,109.46485 C 169.35912,110.45644 172.0365,110.88276 174.70804,111.23977 C 177.05386,111.47785 179.41457,111.43958 181.76884,111.43682 C 183.97649,111.54528 186.16987,111.34888 188.36569,111.15842 C 190.49286,111.10218 192.60508,110.78002 194.72284,110.57459 C 196.06147,110.53098 197.07886,109.9372 198.17994,109.30935 C 168.67494,126.03848 186.86186,115.9325 200.22233,108.62158 L 185.31632,119.9993 C 190.30262,117.14629 205.62003,109.33417 200.2752,111.44027 C 194.31013,113.79078 189.24098,117.98523 183.56335,120.96271 C 182.40804,121.2035 181.23853,121.4001 180.04259,121.41162 C 177.96456,121.54823 175.88722,121.69878 173.81334,121.89078 C 171.60536,122.006 169.40064,122.04269 167.18932,122.01147 C 164.8177,121.9498 162.44154,121.88608 160.09095,121.53187 C 157.36664,120.96854 154.68104,120.28059 152.03112,119.4236 C 149.81267,118.59869 147.62982,117.68387 145.40795,116.87079 C 143.96397,116.28886 142.50882,115.69657 141.23584,114.78255 C 140.59564,114.13884 139.91622,113.52569 139.3751,112.79079 C 138.75615,112.00925 138.14053,111.22921 137.41296,110.54221 C 136.84579,109.70001 136.21742,108.89467 135.96011,107.88477 C 135.64095,107.0342 135.38644,106.12675 134.79656,105.41834 C 134.58383,105.50861 133.90835,105.15381 133.76004,105.85818 C 160.47393,90.377459 152.74062,93.221243 148.12462,97.85928 C 147.34229,98.547219 146.5619,99.245604 145.68665,99.823755 C 144.75312,100.6242 143.87074,101.46821 142.92858,102.25826 C 141.74041,103.16289 140.58523,104.10147 139.57316,105.20538 C 138.59726,106.29646 137.62299,107.39568 136.95421,108.71256 C 136.09916,110.07361 135.32368,111.463 134.72023,112.95808 C 134.05605,114.36609 133.51964,115.81422 132.96551,117.27021 C 132.36703,118.99171 131.76532,120.69414 131.25374,122.44503 C 130.49738,124.5665 129.8693,126.74375 128.86804,128.76745 C 127.85797,130.79385 126.89513,132.86291 125.55286,134.69884 C 124.3283,136.24748 123.07232,137.78442 121.33951,138.78515 C 116.65783,141.46888 108.54871,148.88319 101.13542,148.83148 C 99.756456,148.61823 98.354156,148.48315 97.092416,147.82571 C 95.716296,147.1483 94.356976,146.42522 93.207616,145.3912 C 92.246146,144.42377 91.334769,143.41607 90.550591,142.29287 C 89.95321,141.40102 89.349983,140.51526 88.82392,139.57882 C 88.547193,139.33247 88.518353,138.57551 87.968638,138.81743 C 87.247671,138.83513 86.514329,138.76115 85.792093,138.97085 C 84.780626,139.17838 83.772477,139.38441 82.744188,139.48748 C 81.420979,139.66261 80.087214,139.80779 78.788402,140.12806 C 77.468885,140.43874 76.147869,140.77202 74.916646,141.35081 C 73.720008,141.82406 72.53511,142.3378 71.340832,142.82302 C 69.649543,143.4814 67.94335,144.10396 66.285408,144.84582 C 64.301555,145.67222 62.302479,146.47812 60.39949,147.48104 C 58.522078,148.40041 56.658143,149.34504 54.840506,150.37932 C 82.055058,134.64102 71.887844,139.72064 66.690222,143.84105 C 60.885702,148.83984 54.84553,152.20192 47.364119,155.66127 C 45.622335,156.54196 43.855236,157.38137 42.1515,158.33045 C 40.752055,159.01333 39.399502,159.7802 37.993645,160.45198 C 36.363864,161.12923 34.730028,161.75812 32.948663,161.89772 C 31.147834,161.93314 29.354364,161.92134 27.595081,161.44073 C 25.863237,160.79474 24.214772,160.06535 22.845028,158.76984 C 21.395372,157.53942 19.972743,156.27901 18.620323,154.9412 C 17.328197,153.61288 16.053712,152.26414 14.900342,150.8116 C 13.972294,149.51303 13.061286,148.2062 12.196397,146.86329 C 11.464872,145.7752 10.755145,144.66663 9.9270659,143.64707 C 8.9866169,142.49128 7.9851999,141.39911 6.9209329,140.35551 C 6.0796069,139.46351 5.2212909,138.58403 4.4447189,137.63353 C 3.9030139,137.09509 3.4056089,136.49726 2.7121903,136.14606 C 2.0337088,135.9037 1.38213,135.53158 0.63839079,135.45521 C -0.27321851,135.35295 -1.1594259,135.24876 -2.0760378,135.40501 C -2.9290437,135.59124 -3.8041044,135.65851 -4.5732265,136.13593 C -5.7556289,136.66484 -6.936707,137.1911 -8.1360387,137.68233 C -16.947899,142.37328 12.079222,125.73452 4.7658279,130.15278 C 4.0696879,130.5965 3.3572929,130.98054 2.769098,131.58786 C 2.1503854,132.39476 1.4673757,133.10945 0.84832759,133.91808 C 0.27703099,134.88815 -0.26479041,135.85718 -0.80953901,136.84369 C -1.3135669,137.88593 -1.7493025,138.96564 -2.3387888,139.96365 C -6.9294484,145.74574 -13.867901,148.88077 -20.942562,151.46922 C -22.414675,151.8956 -23.875758,152.35522 -25.433518,152.2613 C -26.735028,152.26797 -28.036139,152.30847 -29.337526,152.29646 C -30.368701,152.25532 -31.395994,152.30426 -32.358269,151.85578 C -33.307225,151.29112 -34.301055,150.79884 -34.967149,149.86978 C -35.744007,148.75469 -36.530545,147.64595 -37.223849,146.47377 C -37.996594,145.22601 -38.693482,143.93023 -39.524532,142.7211 C -40.166914,141.68878 -40.794188,140.65175 -41.350406,139.56741 C -41.726767,138.83951 -42.128416,138.12312 -42.412265,137.35197 C -42.751827,136.63845 -43.037627,135.88895 -43.45075,135.20207 C -43.737169,134.45643 -44.070829,133.72854 -44.219747,132.9389 C -44.443758,132.23538 -44.611374,131.5008 -45.025987,130.88095 C -45.351667,130.31142 -45.746162,129.7781 -45.968308,129.15273 C -46.308315,128.64072 -46.669906,128.14343 -46.97069,127.60646 C -47.277193,127.09084 -47.551916,126.55034 -47.928556,126.08332 C -48.339704,126.06456 -48.766019,125.83293 -49.225624,126.02412 C -49.986694,126.10057 -50.772689,126.04283 -51.466403,126.43097 C -46.645316,123.67811 -32.520027,114.91636 -36.958265,118.25149 C -43.442811,121.99127 -48.493836,126.32908 -55.166362,128.31493 C -56.075973,128.44976 -56.981981,128.61918 -57.895872,128.75484 C -58.729711,129.09924 -59.548374,129.4443 -60.32164,129.92976 C -55.453431,127.10298 -40.90512,118.52778 -45.717014,121.4494 C -51.097867,124.71647 -56.630142,127.7275 -62.070461,130.89456 C -62.355454,131.06047 -18.969813,106.02484 -62.946181,131.35481 C -68.963221,134.22848 -76.388303,139.60538 -49.534383,123.44161 C -50.502068,123.95663 -51.39513,124.44839 -52.104072,125.32967 C -53.009945,126.44137 -53.810412,127.63083 -54.858601,128.62121 C -56.205903,130.12615 -57.558808,131.64543 -58.666828,133.33815 C -59.518082,134.57928 -60.341902,135.83679 -60.852886,137.26214 L -78.046762,144.88271 z " />
    <path
       sodipodi:nodetypes="ccccccc"
       id="path3695"
       d="M 33.952255,133.687 L 99.310345,105.67639 L 99.734748,91.246684 L 75.119363,58.992042 L 58.992042,58.143236 L 21.220159,121.37931 L 33.952255,133.687 z "
       style="fill:#ff941c;fill-rule:evenodd;stroke:none;stroke-width:1px;stroke-linecap:butt;stroke-linejoin:miter;stroke-opacity:1;fill-opacity:1" />
    <path
       style="fill:url(#linearGradient3667);fill-rule:evenodd;stroke:none;stroke-width:1px;stroke-linecap:butt;stroke-linejoin:miter;stroke-opacity:1;fill-opacity:1.0"
       d="M 33.952255,133.687 L 99.310345,105.67639 L 99.734748,91.246684 L 75.119363,58.992042 L 58.992042,58.143236 L 21.220159,121.37931 L 33.952255,133.687 z "
       id="path3659"
       sodipodi:nodetypes="ccccccc" />
    <path
       style="fill:url(#linearGradient3685);fill-rule:evenodd;stroke:none;stroke-width:1px;stroke-linecap:butt;stroke-linejoin:miter;stroke-opacity:1;fill-opacity:1.0"
       d="M 75.543767,58.567639 L 168.91247,-14.005305 L 195.22546,17.400531 L 100.58355,90.822281 L 75.543767,58.567639 z "
       id="path3677" />
    <path
       id="path3697"
       d="M 75.543767,58.567639 L 168.91247,-14.005305 L 195.22546,17.400531 L 100.58355,90.822281 L 75.543767,58.567639 z "
       style="fill:url(#linearGradient3715);fill-rule:evenodd;stroke:none;stroke-width:1px;stroke-linecap:butt;stroke-linejoin:miter;stroke-opacity:1;fill-opacity:1.0" />
    <path
       style="fill:#000000;fill-rule:evenodd;stroke:#000000;stroke-width:1px;stroke-linecap:butt;stroke-linejoin:miter;stroke-opacity:1;fill-opacity:1"
       d="M 25.888594,124.77454 L 44.137931,109.07162 L 47.95756,112.89125 L 28.859416,128.59416 L 25.888594,124.77454 z "
       id="path3675" />
  </g>
</svg>
