<?xml version="1.0" encoding="UTF-8" standalone="no"?>
<!-- Created with Inkscape (http://www.inkscape.org/) -->
<svg
   xmlns:dc="http://purl.org/dc/elements/1.1/"
   xmlns:cc="http://web.resource.org/cc/"
   xmlns:rdf="http://www.w3.org/1999/02/22-rdf-syntax-ns#"
   xmlns:svg="http://www.w3.org/2000/svg"
   xmlns="http://www.w3.org/2000/svg"
   xmlns:xlink="http://www.w3.org/1999/xlink"
   xmlns:sodipodi="http://sodipodi.sourceforge.net/DTD/sodipodi-0.dtd"
   xmlns:inkscape="http://www.inkscape.org/namespaces/inkscape"
   width="160"
   height="160"
   id="svg2"
   sodipodi:version="0.32"
   inkscape:version="0.45.1"
   version="1.0"
   sodipodi:docbase="P:\Workcopies\TheSign"
   sodipodi:docname="trust_template.svg"
   inkscape:output_extension="org.inkscape.output.svg.inkscape">
  <defs
     id="defs4">
    <linearGradient
       id="linearGradient3161">
      <stop
         style="stop-color:#ffffff;stop-opacity:1;"
         offset="0"
         id="stop3163" />
      <stop
         style="stop-color:#edd14a;stop-opacity:0;"
         offset="1"
         id="stop3165" />
    </linearGradient>
    <linearGradient
       id="linearGradient3149">
      <stop
         style="stop-color:#000000;stop-opacity:1;"
         offset="0"
         id="stop3151" />
      <stop
         style="stop-color:#000000;stop-opacity:0;"
         offset="1"
         id="stop3153" />
    </linearGradient>
    <linearGradient
       inkscape:collect="always"
       xlink:href="#linearGradient3161"
       id="linearGradient3167"
       x1="111.58604"
       y1="56.798325"
       x2="65.238464"
       y2="114.16445"
       gradientUnits="userSpaceOnUse" />
    <linearGradient
       inkscape:collect="always"
       xlink:href="#linearGradient3161"
       id="linearGradient3177"
       x1="137.32095"
       y1="90"
       x2="80"
       y2="136.03448"
       gradientUnits="userSpaceOnUse" />
    <linearGradient
       inkscape:collect="always"
       xlink:href="#linearGradient3161"
       id="linearGradient3226"
       gradientUnits="userSpaceOnUse"
       x1="137.32095"
       y1="90"
       x2="80"
       y2="136.03448" />
    <linearGradient
       inkscape:collect="always"
       xlink:href="#linearGradient3161"
       id="linearGradient3228"
       gradientUnits="userSpaceOnUse"
       x1="111.58604"
       y1="56.798325"
       x2="65.238464"
       y2="114.16445" />
    <linearGradient
       inkscape:collect="always"
       xlink:href="#linearGradient3161"
       id="linearGradient3232"
       gradientUnits="userSpaceOnUse"
       x1="137.32095"
       y1="90"
       x2="80"
       y2="136.03448"
       gradientTransform="translate(55,-10)" />
    <linearGradient
       inkscape:collect="always"
       xlink:href="#linearGradient3161"
       id="linearGradient3236"
       gradientUnits="userSpaceOnUse"
       x1="137.32095"
       y1="90"
       x2="80"
       y2="136.03448" />
    <linearGradient
       inkscape:collect="always"
       xlink:href="#linearGradient3161"
       id="linearGradient3238"
       gradientUnits="userSpaceOnUse"
       x1="111.58604"
       y1="56.798325"
       x2="65.238464"
       y2="114.16445" />
    <linearGradient
       inkscape:collect="always"
       xlink:href="#linearGradient3161"
       id="linearGradient3246"
       gradientUnits="userSpaceOnUse"
       gradientTransform="translate(55,-10)"
       x1="137.32095"
       y1="90"
       x2="80"
       y2="136.03448" />
    <linearGradient
       inkscape:collect="always"
       xlink:href="#linearGradient3161"
       id="linearGradient3248"
       gradientUnits="userSpaceOnUse"
       x1="111.58604"
       y1="56.798325"
       x2="65.238464"
       y2="114.16445" />
    <linearGradient
       inkscape:collect="always"
       xlink:href="#linearGradient3161"
       id="linearGradient3252"
       gradientUnits="userSpaceOnUse"
       x1="137.32095"
       y1="90"
       x2="80"
       y2="136.03448"
       gradientTransform="matrix(1,0,0,1.5714286,0,-51.428572)" />
    <linearGradient
       inkscape:collect="always"
       xlink:href="#linearGradient3161"
       id="linearGradient3262"
       gradientUnits="userSpaceOnUse"
       gradientTransform="matrix(1,0,0,1.5714286,0,-51.428572)"
       x1="137.32095"
       y1="90"
       x2="80"
       y2="136.03448" />
    <linearGradient
       inkscape:collect="always"
       xlink:href="#linearGradient3161"
       id="linearGradient3264"
       gradientUnits="userSpaceOnUse"
       x1="111.58604"
       y1="56.798325"
       x2="65.238464"
       y2="114.16445" />
    <linearGradient
       inkscape:collect="always"
       xlink:href="#linearGradient3161"
       id="linearGradient3276"
       gradientUnits="userSpaceOnUse"
       gradientTransform="matrix(1,0,0,1.5714286,0,-51.428572)"
       x1="137.32095"
       y1="90"
       x2="80"
       y2="136.03448" />
    <linearGradient
       inkscape:collect="always"
       xlink:href="#linearGradient3161"
       id="linearGradient3278"
       gradientUnits="userSpaceOnUse"
       x1="111.58604"
       y1="56.798325"
       x2="65.238464"
       y2="114.16445" />
  </defs>
  <sodipodi:namedview
     id="base"
     pagecolor="#ffffff"
     bordercolor="#666666"
     borderopacity="1.0"
     inkscape:pageopacity="0.0"
     inkscape:pageshadow="2"
     inkscape:zoom="2.35625"
     inkscape:cx="90.692435"
     inkscape:cy="44.879788"
     inkscape:document-units="px"
     inkscape:current-layer="layer2"
     width="160px"
     height="160px"
     gridtolerance="10000"
     showguides="true"
     showgrid="true"
     inkscape:guide-bbox="true"
     guidetolerance="10000"
     inkscape:grid-points="true"
     inkscape:guide-points="true"
     inkscape:window-width="797"
     inkscape:window-height="573"
     inkscape:window-x="22"
     inkscape:window-y="29">
    <sodipodi:guide
       orientation="horizontal"
       position="59.416446"
       id="guide2176" />
  </sodipodi:namedview>
  <metadata
     id="metadata7">
    <rdf:RDF>
      <cc:Work
         rdf:about="">
        <dc:format>image/svg+xml</dc:format>
        <dc:type
           rdf:resource="http://purl.org/dc/dcmitype/StillImage" />
      </cc:Work>
    </rdf:RDF>
  </metadata>
  <g
     inkscape:label="Vollkörper"
     inkscape:groupmode="layer"
     id="layer1"
     style="display:inline" />
  <g
     inkscape:groupmode="layer"
     id="layer2"
     inkscape:label="Glanzlichter"
     style="display:inline">
    <g
       transform="translate(45,-20)"
       id="g3266">
      <path
         style="fill:#3394c3;fill-opacity:1;fill-rule:evenodd;stroke:none;stroke-width:1px;stroke-linecap:butt;stroke-linejoin:miter;stroke-opacity:1;display:inline"
         d="M 10,200 C 10,200 11.719846,134.44024 30,105.71428 C 40,90 80,90 80,90 C 80,90 120,90 130,105.71428 C 148.28015,134.44024 150,200 150,200 L 10,200 z "
         id="path3268"
         sodipodi:nodetypes="cscscc" />
      <path
         sodipodi:type="arc"
         style="fill:#d0b014;fill-opacity:1;fill-rule:nonzero;stroke:none;stroke-width:3;stroke-miterlimit:4;stroke-dasharray:none;stroke-opacity:1;display:inline"
         id="path3270"
         sodipodi:cx="91.034485"
         sodipodi:cy="83.395226"
         sodipodi:rx="30.76923"
         sodipodi:ry="30.76923"
         d="M 121.80371 83.395226 A 30.76923 30.76923 0 1 1  60.265255,83.395226 A 30.76923 30.76923 0 1 1  121.80371 83.395226 z"
         transform="matrix(1.1329374,0,0,1.1329374,-24.69539,-32.922553)" />
      <path
         sodipodi:nodetypes="cscscc"
         id="path3272"
         d="M 10,200 C 10,200 11.719846,134.44024 30,105.71428 C 40,90 80,90 80,90 C 80,90 120,90 130,105.71428 C 148.28015,134.44024 150,200 150,200 L 10,200 z "
         style="fill:url(#linearGradient3276);fill-opacity:1;fill-rule:evenodd;stroke:none;stroke-width:1px;stroke-linecap:butt;stroke-linejoin:miter;stroke-opacity:1" />
      <path
         transform="matrix(1.1329374,0,0,1.1329374,-24.69539,-32.922553)"
         d="M 121.80371 83.395226 A 30.76923 30.76923 0 1 1  60.265255,83.395226 A 30.76923 30.76923 0 1 1  121.80371 83.395226 z"
         sodipodi:ry="30.76923"
         sodipodi:rx="30.76923"
         sodipodi:cy="83.395226"
         sodipodi:cx="91.034485"
         id="path3274"
         style="fill:url(#linearGradient3278);fill-opacity:1;fill-rule:nonzero;stroke:none;stroke-width:3;stroke-miterlimit:4;stroke-dasharray:none;stroke-opacity:1"
         sodipodi:type="arc" />
    </g>
    <g
       id="g3256"
       transform="translate(-15,0)">
      <path
         sodipodi:nodetypes="cscscc"
         id="path2174"
         d="M 10,200 C 10,200 11.719846,134.44024 30,105.71428 C 40,90 80,90 80,90 C 80,90 120,90 130,105.71428 C 148.28015,134.44024 150,200 150,200 L 10,200 z "
         style="fill:#3394c3;fill-opacity:1;fill-rule:evenodd;stroke:none;stroke-width:1px;stroke-linecap:butt;stroke-linejoin:miter;stroke-opacity:1;display:inline" />
      <path
         transform="matrix(1.1329374,0,0,1.1329374,-24.69539,-32.922553)"
         d="M 121.80371 83.395226 A 30.76923 30.76923 0 1 1  60.265255,83.395226 A 30.76923 30.76923 0 1 1  121.80371 83.395226 z"
         sodipodi:ry="30.76923"
         sodipodi:rx="30.76923"
         sodipodi:cy="83.395226"
         sodipodi:cx="91.034485"
         id="path2168"
         style="fill:#d0b014;fill-opacity:1;fill-rule:nonzero;stroke:none;stroke-width:3;stroke-miterlimit:4;stroke-dasharray:none;stroke-opacity:1;display:inline"
         sodipodi:type="arc" />
      <path
         style="fill:url(#linearGradient3262);fill-opacity:1;fill-rule:evenodd;stroke:none;stroke-width:1px;stroke-linecap:butt;stroke-linejoin:miter;stroke-opacity:1"
         d="M 10,200 C 10,200 11.719846,134.44024 30,105.71428 C 40,90 80,90 80,90 C 80,90 120,90 130,105.71428 C 148.28015,134.44024 150,200 150,200 L 10,200 z "
         id="path3169"
         sodipodi:nodetypes="cscscc" />
      <path
         sodipodi:type="arc"
         style="fill:url(#linearGradient3264);fill-opacity:1;fill-rule:nonzero;stroke:none;stroke-width:3;stroke-miterlimit:4;stroke-dasharray:none;stroke-opacity:1"
         id="path3159"
         sodipodi:cx="91.034485"
         sodipodi:cy="83.395226"
         sodipodi:rx="30.76923"
         sodipodi:ry="30.76923"
         d="M 121.80371 83.395226 A 30.76923 30.76923 0 1 1  60.265255,83.395226 A 30.76923 30.76923 0 1 1  121.80371 83.395226 z"
         transform="matrix(1.1329374,0,0,1.1329374,-24.69539,-32.922553)" />
    </g>
  </g>
</svg>
